<?xml version="1.0" encoding="utf-8"?>
<!-- Generator: Adobe Illustrator 19.1.0, SVG Export Plug-In . SVG Version: 6.00 Build 0)  -->
<svg version="1.1" id="Layer_2" xmlns="http://www.w3.org/2000/svg" xmlns:xlink="http://www.w3.org/1999/xlink" x="0px" y="0px"
	 viewBox="0 0 487.5 112" style="enable-background:new 0 0 487.5 112;" xml:space="preserve">
<style type="text/css">
	.st0{opacity:0.59;}
	.st1{fill:#FFFFFF;}
</style>
<g class="st0">
	<path class="st1" d="M96,89.5l-5.4,0.3l-0.5-0.3l0.2-1.7c0-7-0.3-11.5-0.8-13.5c0.2-0.6,0.2-2.1,0.2-4.6c0-2.4-0.3-8.1-1-16.9
		c-0.7-8.9-1-15-1-18.5c0-3.5-0.3-7.7-0.9-12.7c-0.6-5-0.9-8.4-0.9-10.3c0-1.5,0.1-2.8,0.2-3.9l-0.3,0.1L84.6,8l-0.4,2.5l-0.4,2.1
		c0.1,0.7,0.2,1.5,0.2,2.4l-0.1,4.1C85,37,85.9,50.6,86.5,59.9c0.5,8.2,0.8,17.3,0.8,27.3c0,1.2-0.2,2-0.6,2.5
		c-0.4,0.5-1.2,0.8-2.3,0.8l-3.2-0.1l-0.6,1.2c0,0.5,0.2,0.9,0.5,1.3c0.3,0.3,0.8,0.5,1.3,0.5L97,92.9c1.7,0,2.6-0.6,2.6-1.7
		C99.6,90.1,98.4,89.5,96,89.5z"/>
	<path class="st1" d="M86.9,62.7L86,66l-1,1.8c0,0-1.8,4.1-3.8,6.2c-2,2.1-3.6,3.4-3.6,3.4l-0.5,1l0.3,0.8l1.1,0.3l2.1-0.3l0.8-1.3
		l0.7-1.8l1.6-2.8l2.1-3l1-2l0.8-1.8L86.9,62.7z"/>
	<path class="st1" d="M88.9,63.8l1,2.8l1.3,2.3l2.1,2.8l1.6,1l2.1,1.1l2,0.7h1.5c0,0,2.5,0,2.8-0.5c0.3-0.5,0.5-1.3,0.5-1.3l-0.2-1
		l-1.5-0.3c0,0-5.3,1.5-9.2-4.1s-5.1-7.9-5.1-7.9L88.9,63.8z"/>
	<path class="st1" d="M86.6,54.8L85,58.3l-1.8,2.8L80,64c0,0-2.5,2.3-7.4,1.6c-4.9-0.7-0.5-2.3-0.5-2.3l2-0.2l1.8,0.3l3.1-1.3
		c0,0,6.6-5.6,7.4-11.5L86.6,54.8z"/>
	<path class="st1" d="M88.1,53.8c0,0,2.6,7.4,9.9,9c7.2,1.6,7.9-1.5,7.9-1.5l-0.2-1.8l-1.5-0.5l-1.3,0.7l-1.5,0.7
		c0,0-10.5-0.8-13.5-10.7L88.1,53.8z"/>
	<path class="st1" d="M86.3,46.8c0,0-3.6,9.2-11.8,7.9l-2.3-1.3l-0.3-1.1l0.5-1c0,0,8.2,3.9,13.5-7.6L86.3,46.8z"/>
	<path class="st1" d="M87.4,43.3c0,0,4.3,11.7,12.5,9.4l1.6-0.8l0.3-1.1v-1.5l-1.1-0.3l-1.1,0.3c0,0-4.9,4.3-12.5-8.9L87.4,43.3z"/>
	<path class="st1" d="M85.5,37.1c0,0-2.1,10.8-12.8,7.7L72,43.6l-0.2-1.8l0.8-0.8l1.5,0.5l2,0.7c0,0,6.4,1.5,9.2-8.7L85.5,37.1z"/>
	<path class="st1" d="M87.1,36.4l3.6,3.4l2.3,1c0,0,4.9,2.5,7.7,0.3l0.3-1.8l-0.8-1.1l-1.8,0.3c0,0-7.1,1.6-11-5.1L87.1,36.4z"/>
	<path class="st1" d="M85.1,28.5c0,0-2.1,7.4-9.5,5.6l-1.5-1L73.6,32l-0.2-1.5l1.1-0.7l1.5,0.5l1.3,0.7c0,0,4.8,2,7.4-5.1L85.1,28.5
		z"/>
	<path class="st1" d="M86.9,28.2c0,0,2.1,5.9,10.5,3.3l1-1.3l-0.2-1.3l-1.1-0.5H96c0,0-3.8,3.4-9.2-2.6L86.9,28.2z"/>
	<path class="st1" d="M84.3,17.5c0,0-0.2,5.9-7.9,5.4l-0.5,1.1v0.8l1.5,0.5c0,0,5.9,0.3,7.6-4.4L84.3,17.5z"/>
	<path class="st1" d="M85.6,16.7c0,0,3.1,6.1,8.9,3.4l0.8,0.8v1.1l-0.7,0.7l-1.1,0.7c0,0-4.8,1-7.9-4.4V16.7z"/>
	<path class="st1" d="M84.6,9.1c0,0-0.7,6.9-5.7,7.1l-1,1.3l1.5,1h1.3c0,0,2.3-0.8,3.9-4.8C86.3,9.8,84.6,9.1,84.6,9.1z"/>
	<path class="st1" d="M85.6,12.6c0,0,3,4.9,6.1,3l0.3-1.6l-0.8-0.5l-1.1,0.2c0,0-4.8-0.5-4.6-4.6L85.6,12.6z"/>
</g>
<g class="st0">
	<path class="st1" d="M436.6,98l-5.4,0.3l-0.5-0.3l0.2-1.7c0-7-0.3-11.5-0.8-13.5c0.2-0.6,0.2-2.1,0.2-4.6c0-2.4-0.3-8.1-1-16.9
		c-0.7-8.9-1-15-1-18.5c0-3.5-0.3-7.7-0.9-12.7c-0.6-5-0.9-8.4-0.9-10.3c0-1.5,0.1-2.8,0.2-3.9l-0.3,0.1l-1.3,0.5l-0.4,2.5l-0.4,2.1
		c0.1,0.7,0.2,1.5,0.2,2.4l-0.1,4.1c1.2,17.9,2.1,31.6,2.7,40.9c0.5,8.2,0.8,17.3,0.8,27.3c0,1.2-0.2,2-0.6,2.5
		c-0.4,0.5-1.2,0.8-2.3,0.8l-3.2-0.1l-0.6,1.2c0,0.5,0.2,0.9,0.5,1.3c0.3,0.3,0.8,0.5,1.3,0.5l14.7-0.5c1.7,0,2.6-0.6,2.6-1.7
		C440.2,98.6,439,98,436.6,98z"/>
	<path class="st1" d="M427.6,71.1l-1,3.3l-1,1.8c0,0-1.8,4.1-3.8,6.2c-2,2.1-3.6,3.4-3.6,3.4l-0.5,1l0.3,0.8l1.1,0.3l2.1-0.3
		l0.8-1.3l0.7-1.8l1.6-2.8l2.1-3l1-2l0.8-1.8L427.6,71.1z"/>
	<path class="st1" d="M429.5,72.3l1,2.8l1.3,2.3l2.1,2.8l1.6,1l2.1,1.1l2,0.7h1.5c0,0,2.5,0,2.8-0.5c0.3-0.5,0.5-1.3,0.5-1.3l-0.2-1
		l-1.5-0.3c0,0-5.3,1.5-9.2-4.1c-3.9-5.6-5.1-7.9-5.1-7.9L429.5,72.3z"/>
	<path class="st1" d="M427.2,63.2l-1.6,3.4l-1.8,2.8l-3.1,3c0,0-2.5,2.3-7.4,1.6c-4.9-0.7-0.5-2.3-0.5-2.3l2-0.2l1.8,0.3l3.1-1.3
		c0,0,6.6-5.6,7.4-11.5L427.2,63.2z"/>
	<path class="st1" d="M428.7,62.3c0,0,2.6,7.4,9.9,9s7.9-1.5,7.9-1.5l-0.2-1.8l-1.5-0.5l-1.3,0.7l-1.5,0.7c0,0-10.5-0.8-13.5-10.7
		L428.7,62.3z"/>
	<path class="st1" d="M426.9,55.2c0,0-3.6,9.2-11.8,7.9l-2.3-1.3l-0.3-1.1l0.5-1c0,0,8.2,3.9,13.5-7.6L426.9,55.2z"/>
	<path class="st1" d="M428.1,51.7c0,0,4.3,11.7,12.5,9.4l1.6-0.8l0.3-1.1v-1.5l-1.1-0.3l-1.1,0.3c0,0-4.9,4.3-12.5-8.9L428.1,51.7z"
		/>
	<path class="st1" d="M426.1,45.5c0,0-2.1,10.8-12.8,7.7l-0.7-1.1l-0.2-1.8l0.8-0.8l1.5,0.5l2,0.7c0,0,6.4,1.5,9.2-8.7L426.1,45.5z"
		/>
	<path class="st1" d="M427.7,44.9l3.6,3.4l2.3,1c0,0,4.9,2.5,7.7,0.3l0.3-1.8l-0.8-1.1l-1.8,0.3c0,0-7.1,1.6-11-5.1L427.7,44.9z"/>
	<path class="st1" d="M425.8,37c0,0-2.1,7.4-9.5,5.6l-1.5-1l-0.5-1.1l-0.2-1.5l1.1-0.7l1.5,0.5l1.3,0.7c0,0,4.8,2,7.4-5.1L425.8,37z
		"/>
	<path class="st1" d="M427.6,36.6c0,0,2.1,5.9,10.5,3.3l1-1.3l-0.2-1.3l-1.1-0.5h-1.1c0,0-3.8,3.4-9.2-2.6L427.6,36.6z"/>
	<path class="st1" d="M424.9,26c0,0-0.2,5.9-7.9,5.4l-0.5,1.1v0.8l1.5,0.5c0,0,5.9,0.3,7.6-4.4L424.9,26z"/>
	<path class="st1" d="M426.2,25.1c0,0,3.1,6.1,8.9,3.4l0.8,0.8v1.1l-0.7,0.7l-1.1,0.7c0,0-4.8,1-7.9-4.4V25.1z"/>
	<path class="st1" d="M425.3,17.6c0,0-0.7,6.9-5.7,7.1l-1,1.3l1.5,1h1.3c0,0,2.3-0.8,3.9-4.8C426.9,18.2,425.3,17.6,425.3,17.6z"/>
	<path class="st1" d="M426.2,21c0,0,3,4.9,6.1,3l0.3-1.6l-0.8-0.5l-1.1,0.2c0,0-4.8-0.5-4.6-4.6L426.2,21z"/>
</g>
<g class="st0">
	<path class="st1" d="M264.7,83.6l-5,0.3l-0.5-0.3l0.2-1.7c0-6.8-0.2-11.2-0.7-13.2c0.1-0.6,0.2-2.1,0.2-4.5c0-2.4-0.3-7.9-0.9-16.6
		c-0.6-8.7-0.9-14.7-0.9-18.1c0-3.4-0.3-7.6-0.8-12.5c-0.6-4.9-0.8-8.3-0.8-10.1c0-1.5,0.1-2.8,0.2-3.8l-0.3,0.1l-1.2,0.5l-0.4,2.5
		l-0.3,2c0.1,0.7,0.1,1.5,0.1,2.4l-0.1,4c1.1,17.6,1.9,30.9,2.5,40c0.5,8.1,0.7,17,0.7,26.8c0,1.1-0.2,2-0.6,2.4
		c-0.4,0.5-1.1,0.7-2.2,0.7l-3-0.1l-0.5,1.1c0,0.5,0.2,0.9,0.5,1.3c0.3,0.3,0.7,0.5,1.2,0.5l13.6-0.5c1.6,0,2.4-0.5,2.4-1.7
		C268.1,84.2,267,83.6,264.7,83.6z"/>
	<path class="st1" d="M256.4,57.3l-0.9,3.2l-0.9,1.8c0,0-1.7,4-3.5,6.1c-1.8,2.1-3.3,3.4-3.3,3.4l-0.5,1l0.3,0.8l1.1,0.3l2-0.3
		l0.8-1.3l0.6-1.8l1.5-2.7l2-2.9l0.9-1.9l0.8-1.8L256.4,57.3z"/>
	<path class="st1" d="M258.2,58.4l0.9,2.7l1.2,2.3l2,2.7l1.5,1l2,1.1l1.8,0.6h1.4c0,0,2.3,0,2.6-0.5c0.3-0.5,0.5-1.3,0.5-1.3l-0.2-1
		l-1.4-0.3c0,0-4.9,1.4-8.5-4c-3.7-5.5-4.7-7.7-4.7-7.7L258.2,58.4z"/>
	<path class="st1" d="M256.1,49.6l-1.5,3.4l-1.7,2.7l-2.9,2.9c0,0-2.3,2.3-6.8,1.6c-4.6-0.6-0.5-2.3-0.5-2.3l1.8-0.2l1.7,0.3
		l2.9-1.3c0,0,6.1-5.5,6.8-11.3L256.1,49.6z"/>
	<path class="st1" d="M257.4,48.6c0,0,2.4,7.2,9.1,8.9s7.3-1.4,7.3-1.4l-0.2-1.8l-1.4-0.5l-1.2,0.6l-1.4,0.6c0,0-9.7-0.8-12.5-10.5
		L257.4,48.6z"/>
	<path class="st1" d="M255.8,41.7c0,0-3.3,9-11,7.7l-2.1-1.3l-0.3-1.1l0.5-1c0,0,7.6,3.9,12.5-7.4L255.8,41.7z"/>
	<path class="st1" d="M256.8,38.3c0,0,4,11.4,11.6,9.2l1.5-0.8l0.3-1.1v-1.4l-1.1-0.3l-1.1,0.3c0,0-4.6,4.2-11.6-8.7L256.8,38.3z"/>
	<path class="st1" d="M255,32.2c0,0-2,10.6-11.9,7.6l-0.6-1.1l-0.2-1.8l0.8-0.8l1.4,0.5l1.8,0.6c0,0,5.9,1.4,8.5-8.5L255,32.2z"/>
	<path class="st1" d="M256.5,31.5l3.3,3.4l2.1,1c0,0,4.6,2.4,7.1,0.3l0.3-1.8l-0.8-1.1l-1.7,0.3c0,0-6.5,1.6-10.2-5L256.5,31.5z"/>
	<path class="st1" d="M254.7,23.8c0,0-2,7.2-8.8,5.5l-1.4-1l-0.5-1.1l-0.2-1.4l1.1-0.6l1.4,0.5l1.2,0.6c0,0,4.4,1.9,6.8-5
		L254.7,23.8z"/>
	<path class="st1" d="M256.4,23.5c0,0,2,5.8,9.7,3.2l0.9-1.3l-0.2-1.3l-1.1-0.5h-1.1c0,0-3.5,3.4-8.5-2.6L256.4,23.5z"/>
	<path class="st1" d="M254,13c0,0-0.2,5.8-7.3,5.3l-0.5,1.1v0.8l1.4,0.5c0,0,5.5,0.3,7-4.3L254,13z"/>
	<path class="st1" d="M255.2,12.2c0,0,2.9,6,8.2,3.4l0.8,0.8v1.1l-0.6,0.6l-1.1,0.6c0,0-4.4,1-7.3-4.3V12.2z"/>
	<path class="st1" d="M254.3,4.8c0,0-0.6,6.8-5.3,6.9L248,13l1.4,1h1.2c0,0,2.1-0.8,3.7-4.7S254.3,4.8,254.3,4.8z"/>
	<path class="st1" d="M255.2,8.2c0,0,2.7,4.8,5.6,2.9l0.3-1.6L260.3,9l-1.1,0.2c0,0-4.4-0.5-4.3-4.5L255.2,8.2z"/>
</g>
<g class="st0">
	<path class="st1" d="M27.9,89.1l-5.4,0.3L22,89.1l0.2-1.7c0-7-0.3-11.5-0.8-13.5c0.2-0.6,0.2-2.1,0.2-4.6c0-2.4-0.3-8.1-1-16.9
		c-0.7-8.9-1-15-1-18.5c0-3.5-0.3-7.7-0.9-12.7c-0.6-5-0.9-8.4-0.9-10.3c0-1.5,0.1-2.8,0.2-3.9L17.8,7l-1.3,0.5L16,10.1l-0.4,2.1
		c0.1,0.7,0.2,1.5,0.2,2.4l-0.1,4.1c1.2,17.9,2.1,31.6,2.7,40.9c0.5,8.2,0.8,17.3,0.8,27.3c0,1.2-0.2,2-0.6,2.5
		c-0.4,0.5-1.2,0.8-2.3,0.8L13,90l-0.6,1.2c0,0.5,0.2,0.9,0.5,1.3c0.3,0.3,0.8,0.5,1.3,0.5l14.7-0.5c1.7,0,2.6-0.6,2.6-1.7
		C31.5,89.7,30.3,89.1,27.9,89.1z"/>
	<path class="st1" d="M18.8,62.3l-1,3.3l-1,1.8c0,0-1.8,4.1-3.8,6.2S9.5,77,9.5,77L9,78l0.3,0.8l1.1,0.3l2.1-0.3l0.8-1.3l0.7-1.8
		l1.6-2.8l2.1-3l1-2l0.8-1.8L18.8,62.3z"/>
	<path class="st1" d="M20.8,63.4l1,2.8l1.3,2.3l2.1,2.8l1.6,1l2.1,1.1l2,0.7h1.5c0,0,2.5,0,2.8-0.5c0.3-0.5,0.5-1.3,0.5-1.3l-0.2-1
		L34.1,71c0,0-5.3,1.5-9.2-4.1S19.8,59,19.8,59L20.8,63.4z"/>
	<path class="st1" d="M18.5,54.4l-1.6,3.4l-1.8,2.8l-3.1,3c0,0-2.5,2.3-7.4,1.6s-0.5-2.3-0.5-2.3l2-0.2l1.8,0.3l3.1-1.3
		c0,0,6.6-5.6,7.4-11.5L18.5,54.4z"/>
	<path class="st1" d="M20,53.4c0,0,2.6,7.4,9.9,9c7.2,1.6,7.9-1.5,7.9-1.5l-0.2-1.8l-1.5-0.5l-1.3,0.7L33.3,60
		c0,0-10.5-0.8-13.5-10.7L20,53.4z"/>
	<path class="st1" d="M18.2,46.3c0,0-3.6,9.2-11.8,7.9l-2.3-1.3l-0.3-1.1l0.5-1c0,0,8.2,3.9,13.5-7.6L18.2,46.3z"/>
	<path class="st1" d="M19.3,42.9c0,0,4.3,11.7,12.5,9.4l1.6-0.8l0.3-1.1v-1.5l-1.1-0.3l-1.1,0.3c0,0-4.9,4.3-12.5-8.9L19.3,42.9z"/>
	<path class="st1" d="M17.4,36.6c0,0-2.1,10.8-12.8,7.7l-0.7-1.1l-0.2-1.8l0.8-0.8L6,41.1l2,0.7c0,0,6.4,1.5,9.2-8.7L17.4,36.6z"/>
	<path class="st1" d="M19,36l3.6,3.4l2.3,1c0,0,4.9,2.5,7.7,0.3l0.3-1.8l-0.8-1.1l-1.8,0.3c0,0-7.1,1.6-11-5.1L19,36z"/>
	<path class="st1" d="M17,28.1c0,0-2.1,7.4-9.5,5.6l-1.5-1l-0.5-1.1l-0.2-1.5l1.1-0.7L8,29.9l1.3,0.7c0,0,4.8,2,7.4-5.1L17,28.1z"/>
	<path class="st1" d="M18.8,27.8c0,0,2.1,5.9,10.5,3.3l1-1.3l-0.2-1.3L29,27.9h-1.1c0,0-3.8,3.4-9.2-2.6L18.8,27.8z"/>
	<path class="st1" d="M16.2,17.1c0,0-0.2,5.9-7.9,5.4l-0.5,1.1v0.8L9.3,25c0,0,5.9,0.3,7.6-4.4L16.2,17.1z"/>
	<path class="st1" d="M17.5,16.3c0,0,3.1,6.1,8.9,3.4l0.8,0.8v1.1l-0.7,0.7L25.4,23c0,0-4.8,1-7.9-4.4V16.3z"/>
	<path class="st1" d="M16.5,8.7c0,0-0.7,6.9-5.7,7.1l-1,1.3l1.5,1h1.3c0,0,2.3-0.8,3.9-4.8C18.2,9.4,16.5,8.7,16.5,8.7z"/>
	<path class="st1" d="M17.5,12.2c0,0,3,4.9,6.1,3l0.3-1.6L23.1,13L22,13.1c0,0-4.8-0.5-4.6-4.6L17.5,12.2z"/>
</g>
<g class="st0">
	<path class="st1" d="M196.9,95.4l-5.4,0.3l-0.5-0.3l0.2-1.7c0-7-0.3-11.5-0.8-13.5c0.2-0.6,0.2-2.1,0.2-4.6c0-2.4-0.3-8.1-1-16.9
		c-0.7-8.9-1-15-1-18.5c0-3.5-0.3-7.7-0.9-12.7c-0.6-5-0.9-8.4-0.9-10.3c0-1.5,0.1-2.8,0.2-3.9l-0.3,0.1l-1.3,0.5l-0.4,2.5l-0.4,2.1
		c0.1,0.7,0.2,1.5,0.2,2.4l-0.1,4.1c1.2,17.9,2.1,31.6,2.7,40.9c0.5,8.2,0.8,17.3,0.8,27.3c0,1.2-0.2,2-0.6,2.5
		c-0.4,0.5-1.2,0.8-2.3,0.8l-3.2-0.1l-0.6,1.2c0,0.5,0.2,0.9,0.5,1.3c0.3,0.3,0.8,0.5,1.3,0.5l14.7-0.5c1.7,0,2.6-0.6,2.6-1.7
		C200.6,95.9,199.4,95.4,196.9,95.4z"/>
	<path class="st1" d="M187.9,68.5l-1,3.3l-1,1.8c0,0-1.8,4.1-3.8,6.2c-2,2.1-3.6,3.4-3.6,3.4l-0.5,1l0.3,0.8l1.1,0.3l2.1-0.3
		l0.8-1.3l0.7-1.8l1.6-2.8l2.1-3l1-2l0.8-1.8L187.9,68.5z"/>
	<path class="st1" d="M189.9,69.6l1,2.8l1.3,2.3l2.1,2.8l1.6,1l2.1,1.1l2,0.7h1.5c0,0,2.5,0,2.8-0.5c0.3-0.5,0.5-1.3,0.5-1.3l-0.2-1
		l-1.5-0.3c0,0-5.3,1.5-9.2-4.1c-3.9-5.6-5.1-7.9-5.1-7.9L189.9,69.6z"/>
	<path class="st1" d="M187.6,60.6l-1.6,3.4l-1.8,2.8l-3.1,3c0,0-2.5,2.3-7.4,1.6c-4.9-0.7-0.5-2.3-0.5-2.3l2-0.2l1.8,0.3L180,68
		c0,0,6.6-5.6,7.4-11.5L187.6,60.6z"/>
	<path class="st1" d="M189.1,59.6c0,0,2.6,7.4,9.9,9c7.2,1.6,7.9-1.5,7.9-1.5l-0.2-1.8l-1.5-0.5l-1.3,0.7l-1.5,0.7
		c0,0-10.5-0.8-13.5-10.7L189.1,59.6z"/>
	<path class="st1" d="M187.3,52.6c0,0-3.6,9.2-11.8,7.9l-2.3-1.3l-0.3-1.1l0.5-1c0,0,8.2,3.9,13.5-7.6L187.3,52.6z"/>
	<path class="st1" d="M188.4,49.1c0,0,4.3,11.7,12.5,9.4l1.6-0.8l0.3-1.1V55l-1.1-0.3l-1.1,0.3c0,0-4.9,4.3-12.5-8.9L188.4,49.1z"/>
	<path class="st1" d="M186.4,42.9c0,0-2.1,10.8-12.8,7.7l-0.7-1.1l-0.2-1.8l0.8-0.8l1.5,0.5l2,0.7c0,0,6.4,1.5,9.2-8.7L186.4,42.9z"
		/>
	<path class="st1" d="M188.1,42.2l3.6,3.4l2.3,1c0,0,4.9,2.5,7.7,0.3l0.3-1.8l-0.8-1.1l-1.8,0.3c0,0-7.1,1.6-11-5.1L188.1,42.2z"/>
	<path class="st1" d="M186.1,34.3c0,0-2.1,7.4-9.5,5.6l-1.5-1l-0.5-1.1l-0.2-1.5l1.1-0.7l1.5,0.5l1.3,0.7c0,0,4.8,2,7.4-5.1
		L186.1,34.3z"/>
	<path class="st1" d="M187.9,34c0,0,2.1,5.9,10.5,3.3l1-1.3l-0.2-1.3l-1.1-0.5h-1.1c0,0-3.8,3.4-9.2-2.6L187.9,34z"/>
	<path class="st1" d="M185.3,23.3c0,0-0.2,5.9-7.9,5.4l-0.5,1.1v0.8l1.5,0.5c0,0,5.9,0.3,7.6-4.4L185.3,23.3z"/>
	<path class="st1" d="M186.6,22.5c0,0,3.1,6.1,8.9,3.4l0.8,0.8v1.1l-0.7,0.7l-1.1,0.7c0,0-4.8,1-7.9-4.4V22.5z"/>
	<path class="st1" d="M185.6,14.9c0,0-0.7,6.9-5.7,7.1l-1,1.3l1.5,1h1.3c0,0,2.3-0.8,3.9-4.8C187.3,15.6,185.6,14.9,185.6,14.9z"/>
	<path class="st1" d="M186.6,18.4c0,0,3,4.9,6.1,3l0.3-1.6l-0.8-0.5l-1.1,0.2c0,0-4.8-0.5-4.6-4.6L186.6,18.4z"/>
</g>
<g class="st0">
	<path class="st1" d="M129.9,92.9l-5.3,0.3l-0.5-0.3l0.2-1.7c0-7-0.3-11.5-0.8-13.5c0.2-0.6,0.2-2.1,0.2-4.6c0-2.4-0.3-8.1-1-16.9
		c-0.7-8.9-1-15-1-18.5c0-3.5-0.3-7.7-0.9-12.7c-0.6-5-0.9-8.4-0.9-10.3c0-1.5,0.1-2.8,0.2-3.9l-0.3,0.1l-1.3,0.5l-0.4,2.5l-0.4,2.1
		c0.1,0.7,0.2,1.5,0.2,2.4l-0.1,4.1c1.2,17.9,2.1,31.6,2.7,40.9c0.5,8.2,0.8,17.3,0.8,27.3c0,1.2-0.2,2-0.6,2.5
		c-0.4,0.5-1.2,0.8-2.3,0.8l-3.2-0.1l-0.6,1.2c0,0.5,0.2,0.9,0.5,1.3c0.3,0.3,0.8,0.5,1.3,0.5l14.7-0.5c1.7,0,2.6-0.6,2.6-1.7
		C133.6,93.5,132.4,92.9,129.9,92.9z"/>
	<path class="st1" d="M120.9,66.1l-1,3.3l-1,1.8c0,0-1.8,4.1-3.8,6.2c-2,2.1-3.6,3.4-3.6,3.4l-0.5,1l0.3,0.8l1.1,0.3l2.1-0.3
		l0.8-1.3l0.7-1.8l1.6-2.8l2.1-3l1-2l0.8-1.8L120.9,66.1z"/>
	<path class="st1" d="M122.9,67.2l1,2.8l1.3,2.3l2.1,2.8l1.6,1l2.1,1.1l2,0.7h1.5c0,0,2.5,0,2.8-0.5c0.3-0.5,0.5-1.3,0.5-1.3l-0.2-1
		l-1.5-0.3c0,0-5.3,1.5-9.2-4.1c-3.9-5.6-5.1-7.9-5.1-7.9L122.9,67.2z"/>
	<path class="st1" d="M120.6,58.2l-1.6,3.4l-1.8,2.8l-3.1,3c0,0-2.5,2.3-7.4,1.6c-4.9-0.7-0.5-2.3-0.5-2.3l2-0.2l1.8,0.3l3.1-1.3
		c0,0,6.6-5.6,7.4-11.5L120.6,58.2z"/>
	<path class="st1" d="M122,57.2c0,0,2.6,7.4,9.9,9c7.2,1.6,7.9-1.5,7.9-1.5l-0.2-1.8l-1.5-0.5l-1.3,0.7l-1.5,0.7
		c0,0-10.5-0.8-13.5-10.7L122,57.2z"/>
	<path class="st1" d="M120.2,50.2c0,0-3.6,9.2-11.8,7.9l-2.3-1.3l-0.3-1.1l0.5-1c0,0,8.2,3.9,13.5-7.6L120.2,50.2z"/>
	<path class="st1" d="M121.4,46.7c0,0,4.3,11.7,12.5,9.4l1.6-0.8l0.3-1.1v-1.5l-1.1-0.3l-1.1,0.3c0,0-4.9,4.3-12.5-8.9L121.4,46.7z"
		/>
	<path class="st1" d="M119.4,40.5c0,0-2.1,10.8-12.8,7.7l-0.7-1.1l-0.2-1.8l0.8-0.8l1.5,0.5l2,0.7c0,0,6.4,1.5,9.2-8.7L119.4,40.5z"
		/>
	<path class="st1" d="M121.1,39.8l3.6,3.4l2.3,1c0,0,4.9,2.5,7.7,0.3l0.3-1.8l-0.8-1.1l-1.8,0.3c0,0-7.1,1.6-11-5.1L121.1,39.8z"/>
	<path class="st1" d="M119.1,31.9c0,0-2.1,7.4-9.5,5.6l-1.5-1l-0.5-1.1l-0.2-1.5l1.1-0.7l1.5,0.5l1.3,0.7c0,0,4.8,2,7.4-5.1
		L119.1,31.9z"/>
	<path class="st1" d="M120.9,31.6c0,0,2.1,5.9,10.5,3.3l1-1.3l-0.2-1.3l-1.1-0.5h-1.1c0,0-3.8,3.4-9.2-2.6L120.9,31.6z"/>
	<path class="st1" d="M118.3,20.9c0,0-0.2,5.9-7.9,5.4l-0.5,1.1v0.8l1.5,0.5c0,0,5.9,0.3,7.6-4.4L118.3,20.9z"/>
	<path class="st1" d="M119.6,20.1c0,0,3.1,6.1,8.9,3.4l0.8,0.8v1.1l-0.7,0.7l-1.1,0.7c0,0-4.8,1-7.9-4.4V20.1z"/>
	<path class="st1" d="M118.6,12.5c0,0-0.7,6.9-5.7,7.1l-1,1.3l1.5,1h1.3c0,0,2.3-0.8,3.9-4.8S118.6,12.5,118.6,12.5z"/>
	<path class="st1" d="M119.6,16c0,0,3,4.9,6.1,3l0.3-1.6l-0.8-0.5L124,17c0,0-4.8-0.5-4.6-4.6L119.6,16z"/>
</g>
<g class="st0">
	<path class="st1" d="M298.1,97.3l-5.4,0.3l-0.5-0.3l0.2-1.7c0-7-0.3-11.5-0.8-13.5c0.2-0.6,0.2-2.1,0.2-4.6c0-2.4-0.3-8.1-1-16.9
		c-0.7-8.9-1-15-1-18.5c0-3.5-0.3-7.7-0.9-12.7c-0.6-5-0.9-8.4-0.9-10.3c0-1.5,0.1-2.8,0.2-3.9l-0.3,0.1l-1.3,0.5l-0.4,2.5l-0.4,2.1
		c0.1,0.7,0.2,1.5,0.2,2.4l-0.1,4.1c1.2,17.9,2.1,31.6,2.7,40.9c0.5,8.2,0.8,17.3,0.8,27.3c0,1.2-0.2,2-0.6,2.5
		c-0.4,0.5-1.2,0.8-2.3,0.8l-3.2-0.1l-0.6,1.2c0,0.5,0.2,0.9,0.5,1.3c0.3,0.3,0.8,0.5,1.3,0.5l14.7-0.5c1.7,0,2.6-0.6,2.6-1.7
		C301.8,97.9,300.6,97.3,298.1,97.3z"/>
	<path class="st1" d="M289.1,70.5l-1,3.3l-1,1.8c0,0-1.8,4.1-3.8,6.2c-2,2.1-3.6,3.4-3.6,3.4l-0.5,1l0.3,0.8l1.1,0.3l2.1-0.3
		l0.8-1.3l0.7-1.8l1.6-2.8l2.1-3l1-2l0.8-1.8L289.1,70.5z"/>
	<path class="st1" d="M291.1,71.6l1,2.8l1.3,2.3l2.1,2.8l1.6,1l2.1,1.1l2,0.7h1.5c0,0,2.5,0,2.8-0.5c0.3-0.5,0.5-1.3,0.5-1.3l-0.2-1
		l-1.5-0.3c0,0-5.3,1.5-9.2-4.1c-3.9-5.6-5.1-7.9-5.1-7.9L291.1,71.6z"/>
	<path class="st1" d="M288.8,62.6l-1.6,3.4l-1.8,2.8l-3.1,3c0,0-2.5,2.3-7.4,1.6c-4.9-0.7-0.5-2.3-0.5-2.3l2-0.2l1.8,0.3l3.1-1.3
		c0,0,6.6-5.6,7.4-11.5L288.8,62.6z"/>
	<path class="st1" d="M290.2,61.6c0,0,2.6,7.4,9.9,9s7.9-1.5,7.9-1.5l-0.2-1.8l-1.5-0.5l-1.3,0.7l-1.5,0.7c0,0-10.5-0.8-13.5-10.7
		L290.2,61.6z"/>
	<path class="st1" d="M288.4,54.5c0,0-3.6,9.2-11.8,7.9l-2.3-1.3L274,60l0.5-1c0,0,8.2,3.9,13.5-7.6L288.4,54.5z"/>
	<path class="st1" d="M289.6,51.1c0,0,4.3,11.7,12.5,9.4l1.6-0.8l0.3-1.1V57l-1.1-0.3l-1.1,0.3c0,0-4.9,4.3-12.5-8.9L289.6,51.1z"/>
	<path class="st1" d="M287.6,44.8c0,0-2.1,10.8-12.8,7.7l-0.7-1.1l-0.2-1.8l0.8-0.8l1.5,0.5l2,0.7c0,0,6.4,1.5,9.2-8.7L287.6,44.8z"
		/>
	<path class="st1" d="M289.3,44.2l3.6,3.4l2.3,1c0,0,4.9,2.5,7.7,0.3l0.3-1.8l-0.8-1.1l-1.8,0.3c0,0-7.1,1.6-11-5.1L289.3,44.2z"/>
	<path class="st1" d="M287.3,36.3c0,0-2.1,7.4-9.5,5.6l-1.5-1l-0.5-1.1l-0.2-1.5l1.1-0.7l1.5,0.5l1.3,0.7c0,0,4.8,2,7.4-5.1
		L287.3,36.3z"/>
	<path class="st1" d="M289.1,36c0,0,2.1,5.9,10.5,3.3l1-1.3l-0.2-1.3l-1.1-0.5h-1.1c0,0-3.8,3.4-9.2-2.6L289.1,36z"/>
	<path class="st1" d="M286.5,25.3c0,0-0.2,5.9-7.9,5.4l-0.5,1.1v0.8l1.5,0.5c0,0,5.9,0.3,7.6-4.4L286.5,25.3z"/>
	<path class="st1" d="M287.8,24.5c0,0,3.1,6.1,8.9,3.4l0.8,0.8v1.1l-0.7,0.7l-1.1,0.7c0,0-4.8,1-7.9-4.4V24.5z"/>
	<path class="st1" d="M286.8,16.9c0,0-0.7,6.9-5.7,7.1l-1,1.3l1.5,1h1.3c0,0,2.3-0.8,3.9-4.8C288.4,17.6,286.8,16.9,286.8,16.9z"/>
	<path class="st1" d="M287.8,20.4c0,0,3,4.9,6.1,3l0.3-1.6l-0.8-0.5l-1.1,0.2c0,0-4.8-0.5-4.6-4.6L287.8,20.4z"/>
</g>
<g class="st0">
	<path class="st1" d="M46.2,105.6l5.4,0.3l0.5-0.3l-0.2-1.7c0-7,0.3-11.5,0.8-13.5c-0.2-0.6-0.2-2.1-0.2-4.6c0-2.4,0.3-8.1,1-16.9
		c0.7-8.9,1-15,1-18.5c0-3.5,0.3-7.7,0.9-12.7c0.6-5,0.9-8.4,0.9-10.3c0-1.5-0.1-2.8-0.2-3.9l0.3,0.1l1.3,0.5l0.4,2.5l0.4,2.1
		c-0.1,0.7-0.2,1.5-0.2,2.4l0.1,4.1c-1.2,17.9-2.1,31.6-2.7,40.9c-0.5,8.2-0.8,17.3-0.8,27.3c0,1.2,0.2,2,0.6,2.5
		c0.4,0.5,1.2,0.8,2.3,0.8l3.2-0.1l0.6,1.2c0,0.5-0.2,0.9-0.5,1.3c-0.3,0.3-0.8,0.5-1.3,0.5L45.2,109c-1.7,0-2.6-0.6-2.6-1.7
		C42.5,106.2,43.8,105.6,46.2,105.6z"/>
	<path class="st1" d="M55.2,78.8l1,3.3l1,1.8c0,0,1.8,4.1,3.8,6.2c2,2.1,3.6,3.4,3.6,3.4l0.5,1l-0.3,0.8l-1.1,0.3l-2.1-0.3l-0.8-1.3
		L60,92.3l-1.6-2.8l-2.1-3l-1-2l-0.8-1.8L55.2,78.8z"/>
	<path class="st1" d="M53.2,79.9l-1,2.8L50.9,85l-2.1,2.8l-1.6,1L45,90l-2,0.7h-1.5c0,0-2.5,0-2.8-0.5c-0.3-0.5-0.5-1.3-0.5-1.3
		l0.2-1l1.5-0.3c0,0,5.3,1.5,9.2-4.1s5.1-7.9,5.1-7.9L53.2,79.9z"/>
	<path class="st1" d="M55.9,62.2l1.6,3.4l1.8,2.8l3.1,3c0,0,2.5,2.3,7.4,1.6s0.5-2.3,0.5-2.3l-2-0.2l-1.8,0.3l-3.1-1.3
		c0,0-6.6-5.6-7.4-11.5L55.9,62.2z"/>
	<path class="st1" d="M54.6,60.2c0,0-2.6,7.4-9.9,9s-7.9-1.5-7.9-1.5L37,66l1.5-0.5l1.3,0.7l1.5,0.7c0,0,10.5-0.8,13.5-10.7
		L54.6,60.2z"/>
	<path class="st1" d="M54.7,74.7c0,0,4.8,9.2,15.7,7.9l3.1-1.3l0.4-1.1l-0.7-1c0,0-10.9,3.9-17.9-7.6L54.7,74.7z"/>
	<path class="st1" d="M53.4,70.7c0,0-4.3,11.7-12.5,9.4l-1.6-0.8L39,78.1v-1.5l1.1-0.3l1.1,0.3c0,0,4.9,4.3,12.5-8.9L53.4,70.7z"/>
	<path class="st1" d="M56.4,50.7c0,0,2.1,10.8,12.8,7.7l0.7-1.1l0.2-1.8l-0.8-0.8l-1.5,0.5l-2,0.7c0,0-6.4,1.5-9.2-8.7L56.4,50.7z"
		/>
	<path class="st1" d="M57,42l-3.6,3.4l-2.3,1c0,0-4.9,2.5-7.7,0.3L43.1,45l0.8-1.1l1.8,0.3c0,0,7.1,1.6,11-5.1L57,42z"/>
	<path class="st1" d="M56.2,35.9c0,0,2.1,7.4,9.5,5.6l1.5-1l0.5-1.1l0.2-1.5l-1.1-0.7l-1.5,0.5l-1.3,0.7c0,0-4.8,2-7.4-5.1
		L56.2,35.9z"/>
	<path class="st1" d="M54.8,53.2c0,0-2.7,5.9-13.5,3.3l-1.3-1.3l0.2-1.3l1.5-0.5h1.5c0,0,4.8,3.4,11.8-2.6L54.8,53.2z"/>
	<path class="st1" d="M57.8,41.8c0,0,0.2,5.9,7.9,5.4l0.5,1.1v0.8l-1.5,0.5c0,0-5.9,0.3-7.6-4.4L57.8,41.8z"/>
	<path class="st1" d="M56.5,32.8c0,0-3.1,6.1-8.9,3.4l-0.8,0.8v1.1l0.7,0.7l1.1,0.7c0,0,4.8,1,7.9-4.4V32.8z"/>
	<path class="st1" d="M56.3,24.6c0,0-0.7,6.9-5.7,7.1l-1,1.3l1.5,1h1.3c0,0,2.3-0.8,3.9-4.8S56.3,24.6,56.3,24.6z"/>
	<path class="st1" d="M57.5,29.7c0,0,3,4.9,6.1,3l0.3-1.6l-0.8-0.5L62,30.7c0,0-4.8-0.5-4.6-4.6L57.5,29.7z"/>
</g>
<g class="st0">
	<path class="st1" d="M216.6,98.2l5.4,0.3l0.5-0.3l-0.2-1.7c0-7,0.3-11.5,0.8-13.5c-0.2-0.6-0.2-2.1-0.2-4.6c0-2.4,0.3-8.1,1-16.9
		c0.7-8.9,1-15,1-18.5c0-3.5,0.3-7.7,0.9-12.7c0.6-5,0.9-8.4,0.9-10.3c0-1.5-0.1-2.8-0.2-3.9l0.3,0.1l1.3,0.5l0.4,2.5l0.4,2.1
		c-0.1,0.7-0.2,1.5-0.2,2.4l0.1,4.1c-1.2,17.9-2.1,31.6-2.7,40.9c-0.5,8.2-0.8,17.3-0.8,27.3c0,1.2,0.2,2,0.6,2.5
		c0.4,0.5,1.2,0.8,2.3,0.8l3.2-0.1l0.6,1.2c0,0.5-0.2,0.9-0.5,1.3c-0.3,0.3-0.8,0.5-1.3,0.5l-14.7-0.5c-1.7,0-2.6-0.6-2.6-1.7
		C212.9,98.8,214.1,98.2,216.6,98.2z"/>
	<path class="st1" d="M225.6,71.3l1,3.3l1,1.8c0,0,1.8,4.1,3.8,6.2c2,2.1,3.6,3.4,3.6,3.4l0.5,1l-0.3,0.8l-1.1,0.3l-2.1-0.3
		l-0.8-1.3l-0.7-1.8l-1.6-2.8l-2.1-3l-1-2l-0.8-1.8L225.6,71.3z"/>
	<path class="st1" d="M223.6,72.5l-1,2.8l-1.3,2.3l-2.1,2.8l-1.6,1l-2.1,1.1l-2,0.7H212c0,0-2.5,0-2.8-0.5c-0.3-0.5-0.5-1.3-0.5-1.3
		l0.2-1l1.5-0.3c0,0,5.3,1.5,9.2-4.1c3.9-5.6,5.1-7.9,5.1-7.9L223.6,72.5z"/>
	<path class="st1" d="M226.3,54.8l1.6,3.4l1.8,2.8l3.1,3c0,0,2.5,2.3,7.4,1.6c4.9-0.7,0.5-2.3,0.5-2.3l-2-0.2l-1.8,0.3l-3.1-1.3
		c0,0-6.6-5.6-7.4-11.5L226.3,54.8z"/>
	<path class="st1" d="M225,52.8c0,0-2.6,7.4-9.9,9s-7.9-1.5-7.9-1.5l0.2-1.8l1.5-0.5l1.3,0.7l1.5,0.7c0,0,10.5-0.8,13.5-10.7
		L225,52.8z"/>
	<path class="st1" d="M225.1,67.2c0,0,4.8,9.2,15.7,7.9l3.1-1.3l0.4-1.1l-0.7-1c0,0-10.9,3.9-17.9-7.6L225.1,67.2z"/>
	<path class="st1" d="M223.8,63.3c0,0-4.3,11.7-12.5,9.4l-1.6-0.8l-0.3-1.1v-1.5l1.1-0.3l1.1,0.3c0,0,4.9,4.3,12.5-8.9L223.8,63.3z"
		/>
	<path class="st1" d="M226.8,43.3c0,0,2.1,10.8,12.8,7.7l0.7-1.1l0.2-1.8l-0.8-0.8l-1.5,0.5l-2,0.7c0,0-6.4,1.5-9.2-8.7L226.8,43.3z
		"/>
	<path class="st1" d="M227.4,34.5l-3.6,3.4l-2.3,1c0,0-4.9,2.5-7.7,0.3l-0.3-1.8l0.8-1.1l1.8,0.3c0,0,7.1,1.6,11-5.1L227.4,34.5z"/>
	<path class="st1" d="M226.6,28.5c0,0,2.1,7.4,9.5,5.6l1.5-1l0.5-1.1l0.2-1.5l-1.1-0.7l-1.5,0.5l-1.3,0.7c0,0-4.8,2-7.4-5.1
		L226.6,28.5z"/>
	<path class="st1" d="M225.2,45.7c0,0-2.7,5.9-13.5,3.3l-1.3-1.3l0.2-1.3l1.5-0.5h1.5c0,0,4.8,3.4,11.8-2.6L225.2,45.7z"/>
	<path class="st1" d="M228.2,34.4c0,0,0.2,5.9,7.9,5.4l0.5,1.1v0.8l-1.5,0.5c0,0-5.9,0.3-7.6-4.4L228.2,34.4z"/>
	<path class="st1" d="M226.9,25.4c0,0-3.1,6.1-8.9,3.4l-0.8,0.8v1.1l0.7,0.7l1.1,0.7c0,0,4.8,1,7.9-4.4V25.4z"/>
	<path class="st1" d="M226.7,17.1c0,0-0.7,6.9-5.7,7.1l-1,1.3l1.5,1h1.3c0,0,2.3-0.8,3.9-4.8C228.3,17.8,226.7,17.1,226.7,17.1z"/>
	<path class="st1" d="M227.9,22.2c0,0,3,4.9,6.1,3l0.3-1.6l-0.8-0.5l-1.1,0.2c0,0-4.8-0.5-4.6-4.6L227.9,22.2z"/>
</g>
<g class="st0">
	<path class="st1" d="M458,97.3l5.4,0.3l0.5-0.3l-0.2-1.7c0-7,0.3-11.5,0.8-13.5c-0.2-0.6-0.2-2.1-0.2-4.6c0-2.4,0.3-8.1,1-16.9
		c0.7-8.9,1-15,1-18.5c0-3.5,0.3-7.7,0.9-12.7c0.6-5,0.9-8.4,0.9-10.3c0-1.5-0.1-2.8-0.2-3.9l0.3,0.1l1.3,0.5l0.4,2.5l0.4,2.1
		c-0.1,0.7-0.2,1.5-0.2,2.4l0.1,4.1c-1.2,17.9-2.1,31.6-2.7,40.9c-0.5,8.2-0.8,17.3-0.8,27.3c0,1.2,0.2,2,0.6,2.5
		c0.4,0.5,1.2,0.8,2.3,0.8l3.2-0.1l0.6,1.2c0,0.5-0.2,0.9-0.5,1.3c-0.3,0.3-0.8,0.5-1.3,0.5l-14.7-0.5c-1.7,0-2.6-0.6-2.6-1.7
		C454.3,97.9,455.5,97.3,458,97.3z"/>
	<path class="st1" d="M467,70.5l1,3.3l1,1.8c0,0,1.8,4.1,3.8,6.2c2,2.1,3.6,3.4,3.6,3.4l0.5,1l-0.3,0.8l-1.1,0.3l-2.1-0.3l-0.8-1.3
		l-0.7-1.8l-1.6-2.8l-2.1-3l-1-2l-0.8-1.8L467,70.5z"/>
	<path class="st1" d="M465,71.6l-1,2.8l-1.3,2.3l-2.1,2.8l-1.6,1l-2.1,1.1l-2,0.7h-1.5c0,0-2.5,0-2.8-0.5c-0.3-0.5-0.5-1.3-0.5-1.3
		l0.2-1l1.5-0.3c0,0,5.3,1.5,9.2-4.1c3.9-5.6,5.1-7.9,5.1-7.9L465,71.6z"/>
	<path class="st1" d="M467.7,53.9l1.6,3.4l1.8,2.8l3.1,3c0,0,2.5,2.3,7.4,1.6c4.9-0.7,0.5-2.3,0.5-2.3l-2-0.2l-1.8,0.3l-3.1-1.3
		c0,0-6.6-5.6-7.4-11.5L467.7,53.9z"/>
	<path class="st1" d="M466.3,51.9c0,0-2.6,7.4-9.9,9c-7.2,1.6-7.9-1.5-7.9-1.5l0.2-1.8l1.5-0.5l1.3,0.7l1.5,0.7
		c0,0,10.5-0.8,13.5-10.7L466.3,51.9z"/>
	<path class="st1" d="M466.5,66.4c0,0,4.8,9.2,15.7,7.9l3.1-1.3l0.4-1.1l-0.7-1c0,0-10.9,3.9-17.9-7.6L466.5,66.4z"/>
	<path class="st1" d="M465.2,62.4c0,0-4.3,11.7-12.5,9.4l-1.6-0.8l-0.3-1.1v-1.5l1.1-0.3l1.1,0.3c0,0,4.9,4.3,12.5-8.9L465.2,62.4z"
		/>
	<path class="st1" d="M468.1,42.4c0,0,2.1,10.8,12.8,7.7l0.7-1.1l0.2-1.8l-0.8-0.8l-1.5,0.5l-2,0.7c0,0-6.4,1.5-9.2-8.7L468.1,42.4z
		"/>
	<path class="st1" d="M468.8,33.7l-3.6,3.4l-2.3,1c0,0-4.9,2.5-7.7,0.3l-0.3-1.8l0.8-1.1l1.8,0.3c0,0,7.1,1.6,11-5.1L468.8,33.7z"/>
	<path class="st1" d="M468,27.6c0,0,2.1,7.4,9.5,5.6l1.5-1l0.5-1.1l0.2-1.5l-1.1-0.7l-1.5,0.5l-1.3,0.7c0,0-4.8,2-7.4-5.1L468,27.6z
		"/>
	<path class="st1" d="M466.6,44.8c0,0-2.7,5.9-13.5,3.3l-1.3-1.3l0.2-1.3l1.5-0.5h1.5c0,0,4.8,3.4,11.8-2.6L466.6,44.8z"/>
	<path class="st1" d="M469.6,33.5c0,0,0.2,5.9,7.9,5.4l0.5,1.1v0.8l-1.5,0.5c0,0-5.9,0.3-7.6-4.4L469.6,33.5z"/>
	<path class="st1" d="M468.3,24.5c0,0-3.1,6.1-8.9,3.4l-0.8,0.8v1.1l0.7,0.7l1.1,0.7c0,0,4.8,1,7.9-4.4V24.5z"/>
	<path class="st1" d="M468.1,16.3c0,0-0.7,6.9-5.7,7.1l-1,1.3l1.5,1h1.3c0,0,2.3-0.8,3.9-4.8C469.7,16.9,468.1,16.3,468.1,16.3z"/>
	<path class="st1" d="M469.3,21.4c0,0,3,4.9,6.1,3l0.3-1.6l-0.8-0.5l-1.1,0.2c0,0-4.8-0.5-4.6-4.6L469.3,21.4z"/>
</g>
<g class="st0">
	<path class="st1" d="M146.7,85.7l4.9,0.3l0.5-0.3L152,84c0-6.6,0.2-10.8,0.7-12.7c-0.1-0.6-0.2-2-0.2-4.3c0-2.3,0.3-7.6,0.9-16
		c0.6-8.4,0.9-14.2,0.9-17.5c0-3.3,0.3-7.3,0.8-12c0.6-4.7,0.8-8,0.8-9.7c0-1.5-0.1-2.7-0.2-3.7l0.3,0.1l1.2,0.5l0.4,2.4l0.3,2
		c-0.1,0.7-0.1,1.5-0.1,2.3l0.1,3.8c-1.1,16.9-1.9,29.8-2.5,38.6c-0.5,7.8-0.7,16.4-0.7,25.8c0,1.1,0.2,1.9,0.6,2.4
		c0.4,0.5,1.1,0.7,2.1,0.7l2.9-0.1l0.5,1.1c0,0.5-0.2,0.9-0.5,1.2c-0.3,0.3-0.7,0.5-1.2,0.5l-13.4-0.4c-1.6,0-2.4-0.5-2.4-1.6
		C143.4,86.2,144.5,85.7,146.7,85.7z"/>
	<path class="st1" d="M155,60.3l0.9,3.1l0.9,1.7c0,0,1.7,3.9,3.5,5.9s3.3,3.3,3.3,3.3l0.5,0.9l-0.3,0.8l-1.1,0.3l-2-0.3l-0.8-1.2
		l-0.6-1.7l-1.5-2.6l-2-2.8l-0.9-1.9l-0.8-1.7L155,60.3z"/>
	<path class="st1" d="M153.2,61.4l-0.9,2.6l-1.2,2.2l-2,2.6l-1.5,0.9l-2,1.1l-1.8,0.6h-1.4c0,0-2.3,0-2.6-0.5
		c-0.3-0.5-0.5-1.2-0.5-1.2l0.2-0.9l1.4-0.3c0,0,4.8,1.4,8.4-3.9c3.6-5.3,4.7-7.4,4.7-7.4L153.2,61.4z"/>
	<path class="st1" d="M155.6,44.6l1.5,3.3l1.7,2.6l2.9,2.8c0,0,2.3,2.2,6.8,1.6c4.5-0.6,0.5-2.2,0.5-2.2l-1.8-0.2l-1.7,0.3l-2.9-1.2
		c0,0-6-5.3-6.8-10.9L155.6,44.6z"/>
	<path class="st1" d="M154.4,42.8c0,0-2.4,7-9,8.5c-6.6,1.6-7.2-1.4-7.2-1.4l0.2-1.7l1.4-0.5l1.2,0.6l1.4,0.6c0,0,9.6-0.8,12.4-10.1
		L154.4,42.8z"/>
	<path class="st1" d="M154.6,56.4c0,0,4.4,8.7,14.4,7.4l2.8-1.2l0.4-1.1l-0.6-0.9c0,0-10,3.7-16.4-7.1L154.6,56.4z"/>
	<path class="st1" d="M153.4,52.7c0,0-3.9,11-11.5,8.8l-1.5-0.8l-0.3-1.1v-1.4l1.1-0.3l1.1,0.3c0,0,4.5,4,11.5-8.4L153.4,52.7z"/>
	<path class="st1" d="M156.1,33.8c0,0,2,10.2,11.8,7.3l0.6-1.1l0.2-1.7l-0.8-0.8l-1.4,0.5l-1.8,0.6c0,0-5.9,1.4-8.4-8.2L156.1,33.8z
		"/>
	<path class="st1" d="M156.7,25.6l-3.3,3.3l-2.1,0.9c0,0-4.5,2.3-7.1,0.3l-0.3-1.7l0.8-1.1l1.7,0.3c0,0,6.5,1.6,10.1-4.8L156.7,25.6
		z"/>
	<path class="st1" d="M155.9,19.8c0,0,2,7,8.7,5.3l1.4-0.9l0.5-1.1l0.2-1.4l-1.1-0.6l-1.4,0.5l-1.2,0.6c0,0-4.4,1.9-6.8-4.8
		L155.9,19.8z"/>
	<path class="st1" d="M154.7,36.1c0,0-2.5,5.6-12.4,3.1l-1.2-1.2l0.2-1.2l1.4-0.5h1.4c0,0,4.4,3.3,10.8-2.5L154.7,36.1z"/>
	<path class="st1" d="M157.4,25.4c0,0,0.2,5.6,7.2,5.1l0.5,1.1v0.8l-1.4,0.5c0,0-5.4,0.3-6.9-4.2L157.4,25.4z"/>
	<path class="st1" d="M156.2,16.9c0,0-2.9,5.7-8.1,3.3l-0.8,0.8V22l0.6,0.6l1.1,0.6c0,0,4.4,0.9,7.2-4.2V16.9z"/>
	<path class="st1" d="M156,9.1c0,0-0.6,6.5-5.3,6.7l-0.9,1.2l1.4,0.9h1.2c0,0,2.1-0.8,3.6-4.5S156,9.1,156,9.1z"/>
	<path class="st1" d="M157.1,13.9c0,0,2.7,4.7,5.6,2.8l0.3-1.6l-0.8-0.5l-1.1,0.2c0,0-4.4-0.5-4.2-4.3L157.1,13.9z"/>
</g>
<g class="st0">
	<path class="st1" d="M400.8,96.2l-5.4,0.3l-0.5-0.3l0.2-1.7c0-7-0.3-11.5-0.8-13.5c0.2-0.6,0.2-2.1,0.2-4.6c0-2.4-0.3-8.1-1-16.9
		c-0.7-8.9-1-15-1-18.5c0-3.5-0.3-7.7-0.9-12.7c-0.6-5-0.9-8.4-0.9-10.3c0-1.5,0.1-2.8,0.2-3.9l-0.3,0.1l-1.3,0.5l-0.4,2.5l-0.4,2.1
		c0.1,0.7,0.2,1.5,0.2,2.4l-0.1,4.1c1.2,17.9,2.1,31.6,2.7,40.9c0.5,8.2,0.8,17.3,0.8,27.3c0,1.2-0.2,2-0.6,2.5
		c-0.4,0.5-1.2,0.8-2.3,0.8l-3.2-0.1l-0.6,1.2c0,0.5,0.2,0.9,0.5,1.3c0.3,0.3,0.8,0.5,1.3,0.5l14.7-0.5c1.7,0,2.6-0.6,2.6-1.7
		C404.4,96.7,403.2,96.2,400.8,96.2z"/>
	<path class="st1" d="M391.8,69.3l-1,3.3l-1,1.8c0,0-1.8,4.1-3.8,6.2s-3.6,3.4-3.6,3.4l-0.5,1l0.3,0.8l1.1,0.3l2.1-0.3l0.8-1.3
		l0.7-1.8l1.6-2.8l2.1-3l1-2l0.8-1.8L391.8,69.3z"/>
	<path class="st1" d="M393.7,70.5l1,2.8l1.3,2.3l2.1,2.8l1.6,1l2.1,1.1l2,0.7h1.5c0,0,2.5,0,2.8-0.5c0.3-0.5,0.5-1.3,0.5-1.3l-0.2-1
		L407,78c0,0-5.3,1.5-9.2-4.1c-3.9-5.6-5.1-7.9-5.1-7.9L393.7,70.5z"/>
	<path class="st1" d="M391.4,61.4l-1.6,3.4l-1.8,2.8l-3.1,3c0,0-2.5,2.3-7.4,1.6c-4.9-0.7-0.5-2.3-0.5-2.3l2-0.2l1.8,0.3l3.1-1.3
		c0,0,6.6-5.6,7.4-11.5L391.4,61.4z"/>
	<path class="st1" d="M392.9,60.4c0,0,2.6,7.4,9.9,9s7.9-1.5,7.9-1.5l-0.2-1.8l-1.5-0.5l-1.3,0.7l-1.5,0.7c0,0-10.5-0.8-13.5-10.7
		L392.9,60.4z"/>
	<path class="st1" d="M391.1,53.4c0,0-3.6,9.2-11.8,7.9L377,60l-0.3-1.1l0.5-1c0,0,8.2,3.9,13.5-7.6L391.1,53.4z"/>
	<path class="st1" d="M392.3,49.9c0,0,4.3,11.7,12.5,9.4l1.6-0.8l0.3-1.1v-1.5l-1.1-0.3l-1.1,0.3c0,0-4.9,4.3-12.5-8.9L392.3,49.9z"
		/>
	<path class="st1" d="M390.3,43.7c0,0-2.1,10.8-12.8,7.7l-0.7-1.1l-0.2-1.8l0.8-0.8l1.5,0.5l2,0.7c0,0,6.4,1.5,9.2-8.7L390.3,43.7z"
		/>
	<path class="st1" d="M391.9,43l3.6,3.4l2.3,1c0,0,4.9,2.5,7.7,0.3l0.3-1.8l-0.8-1.1l-1.8,0.3c0,0-7.1,1.6-11-5.1L391.9,43z"/>
	<path class="st1" d="M390,35.2c0,0-2.1,7.4-9.5,5.6l-1.5-1l-0.5-1.1l-0.2-1.5l1.1-0.7l1.5,0.5l1.3,0.7c0,0,4.8,2,7.4-5.1L390,35.2z
		"/>
	<path class="st1" d="M391.8,34.8c0,0,2.1,5.9,10.5,3.3l1-1.3l-0.2-1.3l-1.1-0.5h-1.1c0,0-3.8,3.4-9.2-2.6L391.8,34.8z"/>
	<path class="st1" d="M389.1,24.1c0,0-0.2,5.9-7.9,5.4l-0.5,1.1v0.8l1.5,0.5c0,0,5.9,0.3,7.6-4.4L389.1,24.1z"/>
	<path class="st1" d="M390.4,23.3c0,0,3.1,6.1,8.9,3.4l0.8,0.8v1.1l-0.7,0.7l-1.1,0.7c0,0-4.8,1-7.9-4.4V23.3z"/>
	<path class="st1" d="M389.5,15.8c0,0-0.7,6.9-5.7,7.1l-1,1.3l1.5,1h1.3c0,0,2.3-0.8,3.9-4.8S389.5,15.8,389.5,15.8z"/>
	<path class="st1" d="M390.4,19.2c0,0,3,4.9,6.1,3l0.3-1.6L396,20l-1.1,0.2c0,0-4.8-0.5-4.6-4.6L390.4,19.2z"/>
</g>
<g class="st0">
	<path class="st1" d="M350.6,86.5l4.9,0.3l0.5-0.3l-0.2-1.6c0-6.6,0.2-10.8,0.7-12.7c-0.1-0.6-0.2-2-0.2-4.3c0-2.3,0.3-7.6,0.9-16
		c0.6-8.4,0.9-14.2,0.9-17.5c0-3.3,0.3-7.3,0.8-12c0.6-4.7,0.8-8,0.8-9.7c0-1.5-0.1-2.7-0.2-3.7l0.3,0.1l1.2,0.5l0.4,2.4l0.3,2
		c-0.1,0.7-0.1,1.5-0.1,2.3l0.1,3.8c-1.1,16.9-1.9,29.8-2.5,38.6c-0.5,7.8-0.7,16.4-0.7,25.8c0,1.1,0.2,1.9,0.6,2.4
		c0.4,0.5,1.1,0.7,2.1,0.7l2.9-0.1l0.5,1.1c0,0.5-0.2,0.9-0.5,1.2c-0.3,0.3-0.7,0.5-1.2,0.5l-13.4-0.4c-1.6,0-2.4-0.5-2.4-1.6
		C347.2,87,348.3,86.5,350.6,86.5z"/>
	<path class="st1" d="M358.9,61.1l0.9,3.1l0.9,1.7c0,0,1.7,3.9,3.5,5.9c1.8,2,3.3,3.3,3.3,3.3l0.5,0.9l-0.3,0.8l-1.1,0.3l-2-0.3
		l-0.8-1.2l-0.6-1.7l-1.5-2.6l-2-2.8l-0.9-1.9l-0.8-1.7L358.9,61.1z"/>
	<path class="st1" d="M357.1,62.2l-0.9,2.6l-1.2,2.2l-2,2.6l-1.5,0.9l-2,1.1l-1.8,0.6h-1.4c0,0-2.3,0-2.6-0.5s-0.5-1.2-0.5-1.2
		l0.2-0.9l1.4-0.3c0,0,4.8,1.4,8.4-3.9S358,58,358,58L357.1,62.2z"/>
	<path class="st1" d="M359.5,45.5l1.5,3.3l1.7,2.6l2.9,2.8c0,0,2.3,2.2,6.8,1.6c4.5-0.6,0.5-2.2,0.5-2.2l-1.8-0.2l-1.7,0.3l-2.9-1.2
		c0,0-6-5.3-6.8-10.9L359.5,45.5z"/>
	<path class="st1" d="M358.3,43.6c0,0-2.4,7-9,8.5c-6.6,1.6-7.2-1.4-7.2-1.4l0.2-1.7l1.4-0.5l1.2,0.6l1.4,0.6c0,0,9.6-0.8,12.4-10.1
		L358.3,43.6z"/>
	<path class="st1" d="M358.4,57.3c0,0,4.4,8.7,14.4,7.4l2.8-1.2l0.4-1.1l-0.6-0.9c0,0-10,3.7-16.4-7.1L358.4,57.3z"/>
	<path class="st1" d="M357.2,53.5c0,0-3.9,11-11.5,8.8l-1.5-0.8l-0.3-1.1v-1.4l1.1-0.3l1.1,0.3c0,0,4.5,4,11.5-8.4L357.2,53.5z"/>
	<path class="st1" d="M359.9,34.6c0,0,2,10.2,11.8,7.3l0.6-1.1l0.2-1.7l-0.8-0.8l-1.4,0.5l-1.8,0.6c0,0-5.9,1.4-8.4-8.2L359.9,34.6z
		"/>
	<path class="st1" d="M360.5,26.4l-3.3,3.3l-2.1,0.9c0,0-4.5,2.3-7.1,0.3l-0.3-1.7l0.8-1.1l1.7,0.3c0,0,6.5,1.6,10.1-4.8L360.5,26.4
		z"/>
	<path class="st1" d="M359.8,20.7c0,0,2,7,8.7,5.3l1.4-0.9l0.5-1.1l0.2-1.4l-1.1-0.6l-1.4,0.5l-1.2,0.6c0,0-4.4,1.9-6.8-4.8
		L359.8,20.7z"/>
	<path class="st1" d="M358.5,36.9c0,0-2.5,5.6-12.4,3.1l-1.2-1.2l0.2-1.2l1.4-0.5h1.4c0,0,4.4,3.3,10.8-2.5L358.5,36.9z"/>
	<path class="st1" d="M361.3,26.2c0,0,0.2,5.6,7.2,5.1l0.5,1.1v0.8l-1.4,0.5c0,0-5.4,0.3-6.9-4.2L361.3,26.2z"/>
	<path class="st1" d="M360.1,17.7c0,0-2.9,5.7-8.1,3.3l-0.8,0.8v1.1l0.6,0.6l1.1,0.6c0,0,4.4,0.9,7.2-4.2V17.7z"/>
	<path class="st1" d="M359.9,10c0,0-0.6,6.5-5.3,6.7l-0.9,1.2l1.4,0.9h1.2c0,0,2.1-0.8,3.6-4.5C361.4,10.6,359.9,10,359.9,10z"/>
	<path class="st1" d="M361,14.8c0,0,2.7,4.7,5.6,2.8l0.3-1.6l-0.8-0.5l-1.1,0.2c0,0-4.4-0.5-4.2-4.3L361,14.8z"/>
</g>
<g class="st0">
	<path class="st1" d="M316.7,89.6l4.9,0.3l0.5-0.3l-0.2-1.6c0-6.6,0.2-10.8,0.7-12.7c-0.1-0.6-0.2-2-0.2-4.3c0-2.3,0.3-7.6,0.9-16
		c0.6-8.4,0.9-14.2,0.9-17.5c0-3.3,0.3-7.3,0.8-12c0.6-4.7,0.8-8,0.8-9.7c0-1.5-0.1-2.7-0.2-3.7l0.3,0.1l1.2,0.5l0.4,2.4l0.3,2
		c-0.1,0.7-0.1,1.5-0.1,2.3l0.1,3.8c-1.1,16.9-1.9,29.8-2.5,38.6c-0.5,7.8-0.7,16.4-0.7,25.8c0,1.1,0.2,1.9,0.6,2.4
		c0.4,0.5,1.1,0.7,2.1,0.7l2.9-0.1l0.5,1.1c0,0.5-0.2,0.9-0.5,1.2c-0.3,0.3-0.7,0.5-1.2,0.5l-13.4-0.4c-1.6,0-2.4-0.5-2.4-1.6
		C313.3,90.1,314.5,89.6,316.7,89.6z"/>
	<path class="st1" d="M325,64.2l0.9,3.1l0.9,1.7c0,0,1.7,3.9,3.5,5.9s3.3,3.3,3.3,3.3l0.5,0.9l-0.3,0.8l-1.1,0.3l-2-0.3l-0.8-1.2
		l-0.6-1.7l-1.5-2.6l-2-2.8l-0.9-1.9l-0.8-1.7L325,64.2z"/>
	<path class="st1" d="M323.2,65.3l-0.9,2.6l-1.2,2.2l-2,2.6l-1.5,0.9l-2,1.1l-1.8,0.6h-1.4c0,0-2.3,0-2.6-0.5
		c-0.3-0.5-0.5-1.2-0.5-1.2l0.2-0.9l1.4-0.3c0,0,4.8,1.4,8.4-3.9c3.6-5.3,4.7-7.4,4.7-7.4L323.2,65.3z"/>
	<path class="st1" d="M325.6,48.6l1.5,3.3l1.7,2.6l2.9,2.8c0,0,2.3,2.2,6.8,1.6s0.5-2.2,0.5-2.2l-1.8-0.2l-1.7,0.3l-2.9-1.2
		c0,0-6-5.3-6.8-10.9L325.6,48.6z"/>
	<path class="st1" d="M324.4,46.7c0,0-2.4,7-9,8.5s-7.2-1.4-7.2-1.4l0.2-1.7l1.4-0.5l1.2,0.6l1.4,0.6c0,0,9.6-0.8,12.4-10.1
		L324.4,46.7z"/>
	<path class="st1" d="M324.5,60.4c0,0,4.4,8.7,14.4,7.4l2.8-1.2l0.4-1.1l-0.6-0.9c0,0-10,3.7-16.4-7.1L324.5,60.4z"/>
	<path class="st1" d="M323.3,56.6c0,0-3.9,11-11.5,8.8l-1.5-0.8l-0.3-1.1v-1.4l1.1-0.3l1.1,0.3c0,0,4.5,4,11.5-8.4L323.3,56.6z"/>
	<path class="st1" d="M326,37.7c0,0,2,10.2,11.8,7.3l0.6-1.1l0.2-1.7l-0.8-0.8l-1.4,0.5l-1.8,0.6c0,0-5.9,1.4-8.4-8.2L326,37.7z"/>
	<path class="st1" d="M326.6,29.5l-3.3,3.3l-2.1,0.9c0,0-4.5,2.3-7.1,0.3l-0.3-1.7l0.8-1.1l1.7,0.3c0,0,6.5,1.6,10.1-4.8L326.6,29.5
		z"/>
	<path class="st1" d="M325.9,23.8c0,0,2,7,8.7,5.3l1.4-0.9l0.5-1.1l0.2-1.4l-1.1-0.6l-1.4,0.5l-1.2,0.6c0,0-4.4,1.9-6.8-4.8
		L325.9,23.8z"/>
	<path class="st1" d="M324.6,40.1c0,0-2.5,5.6-12.4,3.1l-1.2-1.2l0.2-1.2l1.4-0.5h1.4c0,0,4.4,3.3,10.8-2.5L324.6,40.1z"/>
	<path class="st1" d="M327.4,29.4c0,0,0.2,5.6,7.2,5.1l0.5,1.1v0.8l-1.4,0.5c0,0-5.4,0.3-6.9-4.2L327.4,29.4z"/>
	<path class="st1" d="M326.2,20.8c0,0-2.9,5.7-8.1,3.3l-0.8,0.8v1.1l0.6,0.6l1.1,0.6c0,0,4.4,0.9,7.2-4.2V20.8z"/>
	<path class="st1" d="M326,13.1c0,0-0.6,6.5-5.3,6.7l-0.9,1.2l1.4,0.9h1.2c0,0,2.1-0.8,3.6-4.5S326,13.1,326,13.1z"/>
	<path class="st1" d="M327.1,17.9c0,0,2.7,4.7,5.6,2.8l0.3-1.6l-0.8-0.5l-1.1,0.2c0,0-4.4-0.5-4.2-4.3L327.1,17.9z"/>
</g>
</svg>
