<?xml version="1.0" encoding="utf-8"?>
<!-- Generator: Adobe Illustrator 19.1.0, SVG Export Plug-In . SVG Version: 6.00 Build 0)  -->
<svg version="1.1" id="Layer_1" xmlns="http://www.w3.org/2000/svg" xmlns:xlink="http://www.w3.org/1999/xlink" x="0px" y="0px"
	 viewBox="0 0 33.2 30.6" style="enable-background:new 0 0 33.2 30.6;" xml:space="preserve">
<style type="text/css">
	.st0{fill:#4B700B;}
	.st1{fill:#FFAA00;}
	.st2{fill:#CE5605;}
</style>
<path class="st0" d="M20.7,20.2c0,0,3-2.4,7.3,1.5s1.9,9,1.9,9S13.5,24.6,20.7,20.2z"/>
<polygon class="st1" points="17.3,7.1 20.5,0 21.2,3.3 26.1,0.2 25,3.9 24.3,5.8 31.5,2.4 31.3,4.8 33.2,5.3 31.7,7.7 31.9,9.2 
	26.4,9.5 28.3,11.9 24.7,12.7 26.3,16.2 20.8,15.1 16.4,8.8 "/>
<polygon class="st2" points="11.7,24.2 5,28.7 5.7,26.4 0.3,27.2 4.1,23.5 2.9,22.3 6.4,21.5 0.6,18.7 2.5,17.6 0,11 5.2,14.1 
	6.4,12.9 9.2,17.4 9.7,13.6 10.9,14.8 14.4,11.9 16.1,16.6 17.7,16.9 "/>
</svg>
