<?xml version="1.0" encoding="utf-8"?>
<!-- Generator: Adobe Illustrator 19.1.0, SVG Export Plug-In . SVG Version: 6.00 Build 0)  -->
<svg version="1.1" id="Layer_1" xmlns="http://www.w3.org/2000/svg" xmlns:xlink="http://www.w3.org/1999/xlink" x="0px" y="0px"
	 viewBox="0 0 363.8 140.8" style="enable-background:new 0 0 363.8 140.8;" xml:space="preserve">
<style type="text/css">
	.st0{fill:#4B700B;}
	.st1{fill:#CE5605;}
	.st2{fill:#D18602;}
	.st3{fill:#A9EBED;}
	.st4{fill:#FFD400;}
</style>
<g>
	<path class="st0" d="M83.8,97.9c-1.2-4.8-2.2-9.8-3.1-14.8c-0.9-5-2.1-16.1-3.6-33.2c-1.5-17.1-2.3-28.7-2.3-34.6
		c0-0.9-0.4-1.5-1.1-2.1c-0.7-0.5-1.5-0.8-2.3-0.8c-0.7,0.7-1.9,1.1-3.4,1.1l-2.6-0.2c-0.6,1.1-1.4,6.5-2.5,16.3
		c-0.4,4-0.8,7.1-1.1,9.4c-0.3,2.3-1.3,7.2-2.9,14.7c-1.6,7.5-2.6,12.4-3,14.6c-0.4,2.3-1.1,6.9-2.3,14.1c-1.2,7.1-2,11.9-2.4,14.2
		c-0.3,1.7-0.9,5.2-1.9,10.5c1.7,0.9,3.9,1.8,6.6,2.1c0.1,0,0.1,0,0.2,0c0.6,0,1.3,0,2.2,0c2,0,3.9,0.3,5.6,1c0,1.1-0.1,2.5-0.1,4.5
		c-0.1,3.1-0.1,5.3-0.2,6.7c-0.1,1.4-0.2,3.3-0.4,5.6c-0.2,2.3-0.5,4.3-0.8,5.9c-0.3,1.6-0.2,2.8,0.2,3.6c0.4,0.8,1.9,1.5,4.4,2
		c1.1-0.4,1.8-1.6,2.2-3.8c0.4-2.2,0.6-6.1,0.6-11.6c0-5.6,0.3-9.7,0.8-12.5l0.3-0.5c1.8,0.1,3.6,0.2,5.1,0.5l0.1-0.3
		c0,0,6.8,1,9-0.9l0.2-0.5C85.5,106.4,84.9,102.7,83.8,97.9z"/>
	<g>
		<path d="M319.4,98l1.5,35.5c0,2.2-1.2,3.3-3.5,3.3l-2.6-1.4c-1.4-7.3-2-16.1-2-26.3l0.8-33.9c-0.8-1.8-1.2-3.2-1.2-4.2
			c1.2-2.1,1.9-7.7,1.9-16.8c0-21.7-0.4-33.4-1.1-35.3c1.2-3,2.1-4.5,2.7-4.5h8c1.5,0,3.5,0.7,5.9,2c2.5,1.3,4.5,2.7,6,4
			c3,2.8,4.5,10,4.5,21.5c0,10.3-0.4,16.5-1.3,18.7c-0.9,2.2-1.8,4.1-2.8,5.7c-1,1.6-2.3,3-3.8,4.1c-3.4,2.4-7.7,4.5-13,6.1V98z
			 M319.3,24.8l0.9,26.3l-0.7,17.2l1.2,1.8c8.9,0,13.6-9.3,14-28c0-1.3,0-2.9,0-4.9s-0.1-3.6-0.2-5c-0.1-1.4-0.4-2.9-0.8-4.5
			s-1.1-3-1.8-4c-1.8-2.4-4.7-3.7-8.5-3.7c-1.6,0-2.7,0.4-3.2,1.2S319.3,23.1,319.3,24.8z"/>
		<g>
			<path class="st0" d="M341.6,22.2c0,0-5.6-3.3-2-12.5s13.2-8.3,13.2-8.3S352.8,31,341.6,22.2z"/>
			<path class="st0" d="M342.4,38.2c0,0-2.8-15.5,21.4-5.2C363.8,33,348.9,53.3,342.4,38.2z"/>
		</g>
	</g>
	<g>
		<path d="M25.7,59.5L25,96.3c0,10.3,1,17.6,2.9,22.1c2.3,5.2,5.1,8.6,8.6,10.2c2.3,1,4.6,1.5,6.9,1.5c2.3,0,4.1-0.5,5.4-1.6
			c1.8,0,2.8,0.7,2.8,2c0,1-0.8,2-2.4,3.2c-1.6,1.2-3.1,2-4.5,2.5h-6.1c-0.8-0.4-2.2-1-4.3-1.6c-2.1-0.7-4-1.6-5.7-2.9
			c-1.8-1.3-3.4-3.4-4.9-6.3c-1.5-2.9-2.6-6.4-3.3-10.3c-1.1-6.4-1.6-13.6-1.6-21.5V72.6c0-16.2,0.6-27.3,1.8-33.3
			c2.4-12.2,5.6-19.9,9.7-23.1c1.1-0.8,2.7-1.7,4.9-2.5c2.2-0.9,3.8-1.5,4.6-2h7.3c0.1,0,0.3,0,0.5,0.1c0.2,0.1,0.4,0.1,0.5,0.1
			c0.1,0,0.3,0.1,0.5,0.1c0.2,0.1,0.4,0.1,0.4,0.1c0.1,0,0.2,0.1,0.4,0.2c0.2,0.1,0.3,0.2,0.4,0.2c0.5,0.5,0.8,1.2,0.8,1.9l-2.4,2.7
			h-7.7c-2.5,0-4.7,1.2-6.5,3.5c-1.8,2.3-3.2,5.1-4.2,8.3s-1.8,6.9-2.4,11.1c-0.9,6.4-1.3,12.5-1.3,18.4L25.7,59.5z"/>
		<polygon class="st1" points="23.3,29.1 22.6,13.8 17.5,17.5 10.9,11.6 9.5,16.7 0,17.5 7.3,24 0.7,26.9 8,27.7 11.7,31.3 
			9.5,37.9 13.1,37.9 16,43 		"/>
		<polygon class="st2" points="27.3,37.9 31.8,28 32.8,32.7 39.6,28.4 38.1,33.4 37,36.1 47,31.3 46.8,34.7 49.4,35.4 47.3,38.7 
			47.7,40.8 40,41.2 42.7,44.5 37.7,45.6 39.8,50.4 32.3,49 26.2,40.3 		"/>
	</g>
	<path d="M245.8,18.4c0,0,0.3-0.3,1-0.8c0.7-0.5,1.2-0.8,1.6-0.8c0.4,0,1.7,0.4,3.8,1.1c0,9.5,0.4,17.7,1.2,36.6
		c0.8,18.9,1.2,34.1,1.2,45.7c0,11.5,0.4,22.5,1.2,33l-1.2,2c-0.1-1.2-2-1.9-5.6-1.9c-0.6-27-0.9-43.3-0.9-48.9l-0.4-0.7l0.6-1.6
		c0-1.9-0.2-4.2-0.6-6.8l-2.8-0.7c-1.1,0.4-2.3,0.5-3.7,0.5l-11.7-1.9l-1.9,0.7L227,97l0.5,0.8l1.1,30.5c0,3.1-1,4.7-3,4.7
		c-2.7,0-4-3.7-4-11l0.4-33.4c0-11-0.2-17-0.5-17.8c0.6-1.2,0.9-5.2,0.9-12.1l-1.3-42.6c0-0.8,0.3-1.6,0.9-2.4
		c0.6-0.7,1.3-1.1,2.2-1.1c2.4,0,3.7,3.5,3.7,10.6L227,67.7c0,1.4,4.9,2.1,14.6,2.1c2.3,0,4-0.4,5-1.3c1-0.9,1.6-3.2,1.6-7.2
		c0-3.9-0.4-11.5-1.2-22.7c-0.8-11.2-1.2-13.6-1.2-19.2C245.8,18.8,245.8,18.4,245.8,18.4z M243,67.4l0.4,0.4H243V67.4z"/>
	<g>
		<path class="st3" d="M137,64.5c0,0,6.5,14,14,4c0,0,3.5,11.5,14,7.5l1.5-53.5l-16.2-6.3L137,64.5z"/>
		<path class="st3" d="M92,64.9c0,0,5.5,7.1,14.5,2.8c0,0,5.5,8.3,22,2l-6-13.5l-8-21.8l-8.2-20L94.5,20L92,64.9z"/>
		<path d="M165.5,94.8l-0.4,19.1c0,8.5,0.6,14.8,1.8,19c0.2,0.7,0.4,1.5,0.4,2.3c0,0.8-0.4,1.9-1.1,3.3c-0.7,1.4-1.7,2-2.9,2
			c-2.4,0-3.7-3.9-3.7-11.7c0-25.3-0.2-40.8-0.6-46.3c-0.4-5.5-0.8-10-1.2-13.5c-0.4-3.4-0.7-6.1-0.7-7.9l0.7-22.6
			c0-4.3-0.2-7.2-0.7-8.6c-2.4,1.9-9.7,27.5-21.9,76.8c-0.1,0.4-0.3,1.3-0.4,2.7c-0.1,1.4-0.3,2.6-0.5,3.8c-0.2,1.2-0.5,2.4-0.8,3.6
			c-0.8,2.7-2,4.1-3.7,4.1c-2,0-3.4-0.5-4.2-1.5c-0.8-1-1.2-2.5-1.2-4.5c0-5-3.1-20.1-9.4-45.2c-6.3-25.2-10.5-38.8-12.6-40.9
			c-0.3,6.5-0.8,16.5-1.6,30c-1.6,28.1-2.4,46.9-2.4,56.5c0,9.6,0.1,15.2,0.2,16.8c-0.5,1.6-1.8,2.4-3.8,2.4c-0.4,0-1-0.3-1.9-1
			c-0.8-0.7-1.2-1.2-1.2-1.6c0-12.8,0.9-32,2.8-57.5C96.2,49,97.2,29.8,97.2,17l-1.1-3.5c0-1.8,1.6-2.8,4.9-2.8c1.8,0,3,1,3.6,2.8
			c0.4,1.5,0.7,3,0.8,4.6c0.1,1.6,0.3,3.4,0.7,5.3c0.4,2,1.9,6.1,4.7,12.3c2.8,6.2,4.4,10.4,5,12.6c0.6,2.2,1.4,4.9,2.3,8.1
			c2,6.9,3.3,12.2,3.9,15.7l2.4,4.8c0.4,2,1,5,2,8.9c2,8.3,3.1,14.8,3.2,19.7c1.4-2.1,5.3-14.7,11.5-37.7c6.2-23,9.6-36,10.2-39
			c0.6-3,1-5.3,1.2-6.9c0.2-1.6,0.5-2.8,0.7-3.7c0.2-0.9,0.6-2,1-3.3c0.9-2.5,2.4-3.7,4.5-3.7c0.8,0,1.7,0.4,2.8,1.1
			c1.1,0.7,1.7,1.5,1.7,2.2C163.1,65.4,163.9,92.2,165.5,94.8z M157.2,28.9H157l-0.3,0.2l0.4,0.2V28.9z"/>
	</g>
	<g>
		<path d="M188.8,98l1.5,35.5c0,2.2-1.2,3.3-3.5,3.3l-2.6-1.4c-1.4-7.3-2-16.1-2-26.3l0.8-33.9c-0.8-1.8-1.2-3.2-1.2-4.2
			c1.2-2.1,1.9-7.7,1.9-16.8c0-21.7-0.4-33.4-1.1-35.3c1.2-3,2.1-4.5,2.7-4.5h8c1.5,0,3.5,0.7,5.9,2s4.5,2.7,6,4
			c3,2.8,4.5,10,4.5,21.5c0,10.3-0.4,16.5-1.3,18.7c-0.9,2.2-1.8,4.1-2.8,5.7c-1,1.6-2.3,3-3.8,4.1c-3.4,2.4-7.7,4.5-13,6.1V98z
			 M188.6,24.8l0.9,26.3l-0.7,17.2l1.2,1.8c8.9,0,13.6-9.3,14-28c0-1.3,0-2.9,0-4.9s-0.1-3.6-0.2-5c-0.1-1.4-0.4-2.9-0.8-4.5
			c-0.4-1.7-1.1-3-1.8-4c-1.8-2.4-4.7-3.7-8.5-3.7c-1.6,0-2.7,0.4-3.2,1.2C188.9,21.8,188.6,23.1,188.6,24.8z"/>
		<polygon class="st1" points="186.6,21.6 176,29.7 176.9,25.9 168.1,27.7 174,21.2 171.9,19.3 177.5,17.7 167.8,13.5 170.8,11.6 
			166,1.1 174.9,5.7 176.8,3.6 181.8,10.6 182.3,4.4 184.4,6.2 189.9,1.1 193.1,8.6 195.8,8.9 		"/>
	</g>
	<g>
		<path class="st4" d="M279.5,20.9c-2.4,0-4.6,0.5-6.5,1.6c-7.9,4.2-11.9,15.8-11.9,35l0.3,15.2l-0.3,0.6c0,12.3,2.3,21.5,6.9,27.6
			c2,3,4.1,4.6,6.3,4.9c0.9,0.1,2.3,0.3,4.3,0.6c2,0.3,3.6,0.6,4.7,0.9c1.2,0.3,2.1,0.7,2.7,1.2c0.7,0.5,1.4,0.7,2.1,0.7
			c3.3,0,5.7-3.2,7.3-9.7c2.1-8.9,3.2-19.4,3.2-31.5C298.7,36.6,292.3,20.9,279.5,20.9z"/>
		<path d="M307.8,134c-2.1-24.2-9.2-36.3-21.3-36.3c-2.7,0-5.2,0.6-7.4,1.7c-8.3,4.3-12.8,15.8-13.4,34.5c0,0-0.2,1.7,1.9,2.9
			c1.9,1.8,5.3,3,10.3,3.5c8.8,0.8,18.7,0.4,29.8-1V134H307.8z M271.7,133.9l-0.1-0.1c0.1-2.4,0.3-5,0.6-7.7
			c0.3-3.2,0.8-6.1,1.6-8.7c0.7-2.6,1.6-5.1,2.7-7.6c1.1-2.5,2.6-4.4,4.4-5.8c1.9-1.4,4-2.1,6.5-2.1c2.5,0,4.7,1.1,6.6,3.4
			c1.9,2.3,3.4,5,4.3,8c2,6.3,3.3,12.8,3.8,19.6c-0.5-1-1-1.9-1.5-2.9c-2.9-5.2-5.7-9.9-8.4-14c0,0-1.7,0.5-2.6,0.3s-1.5,1-1.5,1
			c-0.3,0.4-0.6,0.9-0.9,1.4l0,0c0,0,0,0,0,0c-2.5,3.8-5,8-7.5,12.6c-0.7,1.2-1.3,2.4-1.9,3.5C273.8,134.9,271.8,134.6,271.7,133.9z
			 M284.6,134.6c-0.1,0-0.2,0-0.3,0l0.2-0.4l5.8-9.7c0,0,0.1-0.1,0.1-0.1l5,8.5l0.5,1.1C293.5,134.1,289.8,134.3,284.6,134.6z"/>
		<path class="st3" d="M282.2,16.5c0,0-4.7-0.4-3.5-5.7s6.2-2.2,6.2-2.2s-2.1-3.9,1.2-5c3.3-1.1,5.4-0.4,6.4,1.5c0,0-1.7-5,3.3-5.2
			c5-0.2,7.6,3.7,6.6,5.9c0,0,6.2-1.3,6.9,2.4s0.2,5.7-2.1,6.5C307.1,14.8,297.6,19.3,282.2,16.5z"/>
	</g>
</g>
</svg>
