<?xml version="1.0" encoding="utf-8"?>
<!-- Generator: Adobe Illustrator 19.1.0, SVG Export Plug-In . SVG Version: 6.00 Build 0)  -->
<svg version="1.1" id="Layer_1" xmlns="http://www.w3.org/2000/svg" xmlns:xlink="http://www.w3.org/1999/xlink" x="0px" y="0px"
	 viewBox="0 0 178.3 69" style="enable-background:new 0 0 178.3 69;" xml:space="preserve">
<style type="text/css">
	.st0{fill:#4B700B;}
	.st1{fill:#CE5605;}
	.st2{fill:#D18602;}
	.st3{fill:#A9EBED;}
	.st4{fill:#FFD400;}
	.st5{fill:#7C7C7C;}
	.st6{fill:#72492E;}
	.st7{fill:#5B5B5B;}
	.st8{fill:#FFFFFF;}
</style>
<g>
	<path class="st0" d="M41.1,48c-0.6-2.4-1.1-4.8-1.5-7.3c-0.4-2.5-1-7.9-1.8-16.3c-0.7-8.4-1.1-14.1-1.1-17c0-0.4-0.2-0.8-0.5-1
		c-0.4-0.3-0.7-0.4-1.1-0.4c-0.4,0.4-0.9,0.5-1.7,0.5l-1.3-0.1c-0.3,0.5-0.7,3.2-1.2,8c-0.2,1.9-0.4,3.5-0.6,4.6
		c-0.2,1.1-0.6,3.5-1.4,7.2c-0.8,3.7-1.3,6.1-1.5,7.2c-0.2,1.1-0.6,3.4-1.1,6.9c-0.6,3.5-1,5.8-1.2,7c-0.1,0.8-0.5,2.5-0.9,5.1
		c0.8,0.5,1.9,0.9,3.3,1c0,0,0.1,0,0.1,0c0.3,0,0.6,0,1.1,0c1,0,1.9,0.2,2.8,0.5c0,0.5,0,1.2,0,2.2c0,1.5-0.1,2.6-0.1,3.3
		c0,0.7-0.1,1.6-0.2,2.8c-0.1,1.1-0.2,2.1-0.4,2.9c-0.1,0.8-0.1,1.4,0.1,1.8c0.2,0.4,0.9,0.7,2.2,1c0.5-0.2,0.9-0.8,1.1-1.9
		c0.2-1.1,0.3-3,0.3-5.7c0-2.7,0.1-4.8,0.4-6.1l0.1-0.2c0.9,0,1.8,0.1,2.5,0.3l0.1-0.1c0,0,3.3,0.5,4.4-0.4l0.1-0.3
		C41.9,52.2,41.6,50.4,41.1,48z"/>
	<g>
		<path class="st0" d="M167.5,10.9c0,0-2.8-1.6-1-6.1c1.8-4.5,6.5-4.1,6.5-4.1S173,15.2,167.5,10.9z"/>
		<path class="st0" d="M167.9,18.7c0,0-1.4-7.6,10.5-2.5C178.3,16.2,171.1,26.1,167.9,18.7z"/>
	</g>
	<polygon class="st1" points="11.4,14.3 11.1,6.8 8.6,8.6 5.4,5.7 4.6,8.2 0,8.6 3.6,11.8 0.4,13.2 3.9,13.6 5.7,15.4 4.6,18.6 
		6.4,18.6 7.9,21.1 	"/>
	<polygon class="st2" points="13.4,18.6 15.6,13.7 16.1,16 19.4,13.9 18.7,16.4 18.1,17.7 23,15.4 22.9,17 24.2,17.4 23.2,19 
		23.4,20 19.6,20.2 20.9,21.8 18.5,22.4 19.5,24.7 15.8,24 12.8,19.7 	"/>
	<path class="st3" d="M67.2,31.6c0,0,3.2,6.9,6.9,2c0,0,1.7,5.6,6.9,3.7l0.7-26.2l-7.9-3.1L67.2,31.6z"/>
	<path class="st3" d="M45.1,31.8c0,0,2.7,3.5,7.1,1.4c0,0,2.7,4.1,10.8,1l-2.9-6.6l-3.9-10.7l-4-9.8l-5.8,2.8L45.1,31.8z"/>
	<polygon class="st1" points="91.5,10.6 86.3,14.5 86.7,12.7 82.4,13.6 85.3,10.4 84.3,9.5 87,8.7 82.3,6.6 83.7,5.7 81.4,0.5 
		85.7,2.8 86.7,1.8 89.1,5.2 89.4,2.1 90.4,3.1 93.1,0.5 94.7,4.2 96,4.4 	"/>
	<path class="st4" d="M137,10.2c-1.2,0-2.2,0.3-3.2,0.8c-3.9,2-5.8,7.8-5.8,17.2l0.2,7.5L128,36c0,6,1.1,10.6,3.4,13.5
		c1,1.5,2,2.3,3.1,2.4c0.4,0.1,1.1,0.2,2.1,0.3c1,0.1,1.8,0.3,2.3,0.4c0.6,0.2,1,0.3,1.3,0.6c0.3,0.2,0.7,0.3,1,0.3
		c1.6,0,2.8-1.6,3.6-4.8c1-4.4,1.6-9.5,1.6-15.5C146.5,17.9,143.3,10.2,137,10.2z"/>
	<path class="st5" d="M156.6,48l0.7,17.4c0,1.1-0.6,1.6-1.7,1.6l-1.3-0.7c-0.7-3.6-1-7.9-1-12.9l0.4-16.6c-0.4-0.9-0.6-1.6-0.6-2.1
		c0.6-1,0.9-3.8,0.9-8.3c0-10.6-0.2-16.4-0.5-17.3c0.6-1.5,1-2.2,1.3-2.2h3.9c0.7,0,1.7,0.3,2.9,1c1.2,0.7,2.2,1.3,2.9,1.9
		c1.5,1.4,2.2,4.9,2.2,10.6c0,5-0.2,8.1-0.7,9.1c-0.4,1.1-0.9,2-1.4,2.8c-0.5,0.8-1.1,1.5-1.9,2c-1.7,1.2-3.8,2.2-6.4,3V48z
		 M156.5,12.2L157,25l-0.3,8.4l0.6,0.9c4.4,0,6.6-4.6,6.9-13.8c0-0.6,0-1.4,0-2.4c0-1,0-1.8-0.1-2.4c-0.1-0.7-0.2-1.4-0.4-2.2
		s-0.5-1.5-0.9-2c-0.9-1.2-2.3-1.8-4.1-1.8c-0.8,0-1.3,0.2-1.6,0.6C156.7,10.7,156.5,11.3,156.5,12.2z"/>
	<path class="st6" d="M12.6,29.2l-0.3,18c0,5,0.5,8.6,1.4,10.8c1.1,2.6,2.5,4.2,4.2,5c1.1,0.5,2.2,0.7,3.4,0.7c1.1,0,2-0.3,2.6-0.8
		c0.9,0,1.4,0.3,1.4,1c0,0.5-0.4,1-1.2,1.5c-0.8,0.6-1.5,1-2.2,1.2h-3c-0.4-0.2-1.1-0.5-2.1-0.8c-1-0.3-2-0.8-2.8-1.4
		c-0.9-0.6-1.7-1.7-2.4-3.1c-0.8-1.4-1.3-3.1-1.6-5c-0.5-3.1-0.8-6.7-0.8-10.6V35.6c0-7.9,0.3-13.4,0.9-16.3c1.2-6,2.8-9.7,4.8-11.3
		c0.5-0.4,1.3-0.8,2.4-1.2c1.1-0.4,1.8-0.7,2.2-1h3.6c0.1,0,0.1,0,0.2,0c0.1,0,0.2,0.1,0.2,0.1c0.1,0,0.1,0,0.2,0.1
		C23.9,5.9,24,6,24,6c0,0,0.1,0,0.2,0.1c0.1,0,0.1,0.1,0.2,0.1c0.3,0.3,0.4,0.6,0.4,0.9l-1.2,1.3h-3.8c-1.2,0-2.3,0.6-3.2,1.7
		c-0.9,1.2-1.6,2.5-2.1,4.1c-0.5,1.6-0.9,3.4-1.2,5.5c-0.4,3.1-0.7,6.1-0.7,9L12.6,29.2z"/>
	<path class="st5" d="M120.5,9c0,0,0.2-0.1,0.5-0.4c0.3-0.3,0.6-0.4,0.8-0.4c0.2,0,0.8,0.2,1.9,0.5c0,4.7,0.2,8.7,0.6,17.9
		c0.4,9.3,0.6,16.7,0.6,22.4c0,5.7,0.2,11.1,0.6,16.2l-0.6,1c-0.1-0.6-1-0.9-2.8-0.9c-0.3-13.2-0.4-21.2-0.4-24l-0.2-0.3l0.3-0.8
		c0-0.9-0.1-2-0.3-3.3l-1.4-0.3c-0.5,0.2-1.1,0.3-1.8,0.3l-5.7-0.9l-0.9,0.3l-0.3,11.3l0.3,0.4l0.5,14.9c0,1.5-0.5,2.3-1.5,2.3
		c-1.3,0-2-1.8-2-5.4l0.2-16.4c0-5.4-0.1-8.3-0.3-8.7c0.3-0.6,0.4-2.6,0.4-5.9l-0.7-20.9c0-0.4,0.2-0.8,0.5-1.2
		c0.3-0.4,0.7-0.5,1.1-0.5c1.2,0,1.8,1.7,1.8,5.2l-0.3,21.8c0,0.7,2.4,1,7.2,1c1.1,0,2-0.2,2.5-0.6c0.5-0.4,0.8-1.6,0.8-3.5
		c0-1.9-0.2-5.6-0.6-11.1c-0.4-5.5-0.6-6.7-0.6-9.4C120.5,9.2,120.5,9,120.5,9z M119.1,33l0.2,0.2h-0.2V33z"/>
	<path class="st7" d="M81.2,46.5L81,55.9c0,4.2,0.3,7.3,0.9,9.3c0.1,0.3,0.2,0.7,0.2,1.1c0,0.4-0.2,0.9-0.5,1.6
		c-0.4,0.7-0.8,1-1.4,1c-1.2,0-1.8-1.9-1.8-5.7c0-12.4-0.1-20-0.3-22.7c-0.2-2.7-0.4-4.9-0.6-6.6c-0.2-1.7-0.3-3-0.3-3.9l0.3-11.1
		c0-2.1-0.1-3.5-0.3-4.2c-1.2,0.9-4.7,13.5-10.7,37.7c-0.1,0.2-0.1,0.6-0.2,1.3c-0.1,0.7-0.2,1.3-0.3,1.9c-0.1,0.6-0.2,1.2-0.4,1.8
		c-0.4,1.3-1,2-1.8,2c-1,0-1.7-0.2-2.1-0.7c-0.4-0.5-0.6-1.2-0.6-2.2c0-2.4-1.5-9.8-4.6-22.2c-3.1-12.3-5.2-19-6.2-20
		c-0.1,3.2-0.4,8.1-0.8,14.7c-0.8,13.8-1.2,23-1.2,27.7c0,4.7,0,7.5,0.1,8.3C48,65.6,47.4,66,46.4,66c-0.2,0-0.5-0.2-0.9-0.5
		c-0.4-0.3-0.6-0.6-0.6-0.8c0-6.3,0.5-15.7,1.4-28.2c0.9-12.5,1.4-21.9,1.4-28.2l-0.5-1.7c0-0.9,0.8-1.4,2.4-1.4
		c0.9,0,1.5,0.5,1.7,1.4c0.2,0.7,0.3,1.5,0.4,2.2c0,0.8,0.2,1.6,0.3,2.6c0.2,1,0.9,3,2.3,6c1.4,3,2.2,5.1,2.5,6.2
		c0.3,1.1,0.7,2.4,1.1,4c1,3.4,1.6,6,1.9,7.7l1.2,2.4c0.2,1,0.5,2.4,1,4.4c1,4,1.5,7.3,1.6,9.6c0.7-1,2.6-7.2,5.6-18.5
		c3.1-11.3,4.7-17.7,5-19.1c0.3-1.5,0.5-2.6,0.6-3.4c0.1-0.8,0.2-1.4,0.3-1.8c0.1-0.5,0.3-1,0.5-1.6c0.4-1.2,1.2-1.8,2.2-1.8
		c0.4,0,0.8,0.2,1.4,0.5C79.7,6.3,80,6.7,80,7.1C80,32,80.4,45.2,81.2,46.5z M77.1,14.1L77.1,14.1l-0.2,0.1l0.2,0.1V14.1z"/>
	<path class="st5" d="M92.5,48l0.7,17.4c0,1.1-0.6,1.6-1.7,1.6l-1.3-0.7c-0.7-3.6-1-7.9-1-12.9l0.4-16.6c-0.4-0.9-0.6-1.6-0.6-2.1
		c0.6-1,0.9-3.8,0.9-8.3c0-10.6-0.2-16.4-0.5-17.3c0.6-1.5,1-2.2,1.3-2.2h3.9c0.7,0,1.7,0.3,2.9,1s2.2,1.3,2.9,1.9
		c1.5,1.4,2.2,4.9,2.2,10.6c0,5-0.2,8.1-0.7,9.1c-0.4,1.1-0.9,2-1.4,2.8c-0.5,0.8-1.1,1.5-1.9,2c-1.7,1.2-3.8,2.2-6.4,3V48z
		 M92.5,12.2L92.9,25l-0.3,8.4l0.6,0.9c4.4,0,6.7-4.6,6.9-13.8c0-0.6,0-1.4,0-2.4c0-1,0-1.8-0.1-2.4c-0.1-0.7-0.2-1.4-0.4-2.2
		s-0.5-1.5-0.9-2c-0.9-1.2-2.3-1.8-4.1-1.8c-0.8,0-1.3,0.2-1.6,0.6C92.6,10.7,92.5,11.3,92.5,12.2z"/>
	<path class="st8" d="M150.9,65.7c-1-11.8-4.5-17.8-10.4-17.8c-1.3,0-2.6,0.3-3.6,0.9c-4.1,2.1-6.3,7.8-6.6,16.9
		c0,0-0.1,0.8,0.9,1.4c0.9,0.9,2.6,1.5,5.1,1.7c4.3,0.4,9.2,0.2,14.6-0.5L150.9,65.7L150.9,65.7z M133.2,65.6L133.2,65.6
		c0-1.2,0.1-2.5,0.2-3.8c0.1-1.6,0.4-3,0.8-4.3c0.4-1.3,0.8-2.5,1.3-3.7c0.5-1.2,1.3-2.2,2.2-2.9c0.9-0.7,2-1,3.2-1
		c1.2,0,2.3,0.6,3.2,1.7c0.9,1.1,1.7,2.4,2.1,3.9c1,3.1,1.6,6.3,1.8,9.6c-0.2-0.5-0.5-0.9-0.7-1.4c-1.4-2.6-2.8-4.9-4.1-6.9
		c0,0-0.8,0.2-1.3,0.2s-0.8,0.5-0.8,0.5c-0.1,0.2-0.3,0.4-0.4,0.7l0,0c0,0,0,0,0,0c-1.2,1.9-2.4,3.9-3.7,6.2
		c-0.3,0.6-0.6,1.2-0.9,1.7C134.2,66.1,133.2,66,133.2,65.6z M139.5,66c0,0-0.1,0-0.1,0l0.1-0.2l2.8-4.8c0,0,0,0,0-0.1l2.5,4.2
		l0.2,0.5C143.9,65.8,142.1,65.9,139.5,66z"/>
	<path class="st3" d="M138.4,8.1c0,0-2.3-0.2-1.7-2.8s3-1.1,3-1.1s-1-1.9,0.6-2.5s2.7-0.2,3.1,0.7c0,0-0.8-2.5,1.6-2.6
		c2.4-0.1,3.7,1.8,3.2,2.9c0,0,3-0.6,3.4,1.2c0.3,1.8,0.1,2.8-1,3.2C150.5,7.2,145.9,9.5,138.4,8.1z"/>
</g>
</svg>
